ISO-10303-21;
HEADER;
FILE_DESCRIPTION (( 'STEP AP214' ),
    '1' );
FILE_NAME ('Part8^Lucky15.STEP',
    '2026-08-31T20:28:55',
    ( '' ),
    ( '' ),
    'SwSTEP 2.0',
    'SolidWorks 2026',
    '' );
FILE_SCHEMA (( 'AUTOMOTIVE_DESIGN' ));
ENDSEC;

DATA;
#1 = EDGE_CURVE ( 'NONE', #451, #41, #526, .T. ) ;
#2 = DIRECTION ( 'NONE',  ( -1.000000000000000000, 0.000000000000000000, 6.977057820378718134E-15 ) ) ;
#3 = VERTEX_POINT ( 'NONE', #857 ) ;
#4 = LINE ( 'NONE', #680, #753 ) ;
#5 = CIRCLE ( 'NONE', #776, 1.000000000000000000 ) ;
#6 = CARTESIAN_POINT ( 'NONE',  ( 2.500000000000000444, -2.369999999999999662, 7.955354054813143172 ) ) ;
#7 = VECTOR ( 'NONE', #786, 1000.000000000000000 ) ;
#8 = VERTEX_POINT ( 'NONE', #240 ) ;
#9 = CARTESIAN_POINT ( 'NONE',  ( 2.499999999999999556, 1.129999999999999005, -1.399999999999999911 ) ) ;
#10 = CARTESIAN_POINT ( 'NONE',  ( 5.201643631182661837E-14, 1.129999999999988347, 8.955354054813197351 ) ) ;
#11 = EDGE_LOOP ( 'NONE', ( #554, #75, #302, #609 ) ) ;
#12 = CARTESIAN_POINT ( 'NONE',  ( 2.500000000000000000, -3.369999999999999662, 5.955354054813082776 ) ) ;
#13 = EDGE_CURVE ( 'NONE', #258, #727, #748, .T. ) ;
#14 = CARTESIAN_POINT ( 'NONE',  ( 3.500000000000000444, -2.369999999999999218, 7.955354054813143172 ) ) ;
#15 = ORIENTED_EDGE ( 'NONE', *, *, #244, .F. ) ;
#16 =( GEOMETRIC_REPRESENTATION_CONTEXT ( 3 ) GLOBAL_UNCERTAINTY_ASSIGNED_CONTEXT ( ( #53 ) ) GLOBAL_UNIT_ASSIGNED_CONTEXT ( ( #165, #714, #239 ) ) REPRESENTATION_CONTEXT ( 'NONE', 'WORKASPACE' ) );
#17 = LINE ( 'NONE', #634, #349 ) ;
#18 = EDGE_CURVE ( 'NONE', #258, #499, #882, .T. ) ;
#19 = CARTESIAN_POINT ( 'NONE',  ( 2.499999999999999556, 1.129999999999999005, 3.455354054813180920 ) ) ;
#20 = AXIS2_PLACEMENT_3D ( 'NONE', #642, #626, #567 ) ;
#21 = FACE_OUTER_BOUND ( 'NONE', #229, .T. ) ;
#22 = CIRCLE ( 'NONE', #236, 0.9999999999999991118 ) ;
#23 = ORIENTED_EDGE ( 'NONE', *, *, #1, .F. ) ;
#24 = CARTESIAN_POINT ( 'NONE',  ( 5.221448390866710400E-14, -1.370000000000000329, 3.455354054813172038 ) ) ;
#25 = AXIS2_PLACEMENT_3D ( 'NONE', #454, #736, #647 ) ;
#26 = ORIENTED_EDGE ( 'NONE', *, *, #214, .T. ) ;
#27 = CARTESIAN_POINT ( 'NONE',  ( 2.500000000000000444, -3.369999999999999662, 7.955354054813143172 ) ) ;
#28 = DIRECTION ( 'NONE',  ( 0.000000000000000000, 1.000000000000000000, 1.066958341385370019E-14 ) ) ;
#29 = EDGE_CURVE ( 'NONE', #457, #506, #678, .T. ) ;
#30 = EDGE_CURVE ( 'NONE', #208, #275, #689, .T. ) ;
#31 = CARTESIAN_POINT ( 'NONE',  ( -2.000000000000000444, -1.369999999999999662, 5.955354054813082776 ) ) ;
#32 = ORIENTED_EDGE ( 'NONE', *, *, #18, .F. ) ;
#33 = DIRECTION ( 'NONE',  ( 1.000000000000000000, 0.000000000000000000, -7.372574772901438040E-15 ) ) ;
#34 = DIRECTION ( 'NONE',  ( -1.000000000000000000, 0.000000000000000000, 6.977057820378718134E-15 ) ) ;
#35 = AXIS2_PLACEMENT_3D ( 'NONE', #197, #326, #191 ) ;
#36 = VECTOR ( 'NONE', #541, 1000.000000000000000 ) ;
#37 = CARTESIAN_POINT ( 'NONE',  ( -1.000000000000000222, -3.369999999999999662, -1.399999999999999911 ) ) ;
#38 = LINE ( 'NONE', #113, #308 ) ;
#39 = CARTESIAN_POINT ( 'NONE',  ( 0.000000000000000000, -1.369999999999999662, 0.000000000000000000 ) ) ;
#40 = CIRCLE ( 'NONE', #150, 1.000000000000000000 ) ;
#41 = VERTEX_POINT ( 'NONE', #77 ) ;
#42 = EDGE_CURVE ( 'NONE', #506, #791, #686, .T. ) ;
#43 = EDGE_CURVE ( 'NONE', #866, #188, #22, .T. ) ;
#44 = ORIENTED_EDGE ( 'NONE', *, *, #176, .F. ) ;
#45 = LINE ( 'NONE', #522, #781 ) ;
#46 = ORIENTED_EDGE ( 'NONE', *, *, #863, .T. ) ;
#47 = LINE ( 'NONE', #248, #568 ) ;
#48 = EDGE_CURVE ( 'NONE', #848, #797, #612, .T. ) ;
#49 = DIRECTION ( 'NONE',  ( -0.000000000000000000, -0.000000000000000000, 1.000000000000000000 ) ) ;
#50 = EDGE_LOOP ( 'NONE', ( #245, #431, #219, #466 ) ) ;
#51 = VECTOR ( 'NONE', #610, 1000.000000000000000 ) ;
#52 = DIRECTION ( 'NONE',  ( 0.000000000000000000, 0.000000000000000000, 1.000000000000000000 ) ) ;
#53 = UNCERTAINTY_MEASURE_WITH_UNIT (LENGTH_MEASURE( 1.000000000000000082E-05 ), #165, 'distance_accuracy_value', 'NONE');
#54 = LINE ( 'NONE', #179, #844 ) ;
#55 = ORIENTED_EDGE ( 'NONE', *, *, #244, .T. ) ;
#56 = CARTESIAN_POINT ( 'NONE',  ( -3.041774392093320643E-31, 2.517579272914108303E-16, 3.455354054813185805 ) ) ;
#57 = CARTESIAN_POINT ( 'NONE',  ( -1.243498156241759195E-32, 1.577021341797097560E-16, -1.399999999999999911 ) ) ;
#58 = EDGE_CURVE ( 'NONE', #697, #290, #887, .T. ) ;
#59 = PRODUCT_RELATED_PRODUCT_CATEGORY ( 'part', '', ( #847 ) ) ;
#60 = DIRECTION ( 'NONE',  ( 0.000000000000000000, 0.000000000000000000, 1.000000000000000000 ) ) ;
#61 = VERTEX_POINT ( 'NONE', #824 ) ;
#62 = CARTESIAN_POINT ( 'NONE',  ( -0.9999999999999997780, 1.129999999999999005, 3.455354054813204900 ) ) ;
#63 = DIRECTION ( 'NONE',  ( 2.573773703229684637E-16, -1.000000000000000000, -1.066958341385370177E-14 ) ) ;
#64 = AXIS2_PLACEMENT_3D ( 'NONE', #662, #49, #225 ) ;
#65 = ORIENTED_EDGE ( 'NONE', *, *, #257, .T. ) ;
#66 = DIRECTION ( 'NONE',  ( -1.000000000000000000, 0.000000000000000000, 0.000000000000000000 ) ) ;
#67 = VECTOR ( 'NONE', #307, 1000.000000000000000 ) ;
#68 = CARTESIAN_POINT ( 'NONE',  ( 2.500000000000000000, 1.129999999999999005, 7.955354054813179587 ) ) ;
#69 = EDGE_CURVE ( 'NONE', #562, #275, #5, .T. ) ;
#70 = ORIENTED_EDGE ( 'NONE', *, *, #669, .T. ) ;
#71 = CARTESIAN_POINT ( 'NONE',  ( -0.9999999999999928946, 1.129999999999988347, 8.955354054813204456 ) ) ;
#72 = EDGE_CURVE ( 'NONE', #3, #575, #74, .T. ) ;
#73 = AXIS2_PLACEMENT_3D ( 'NONE', #39, #441, #586 ) ;
#74 = LINE ( 'NONE', #284, #416 ) ;
#75 = ORIENTED_EDGE ( 'NONE', *, *, #823, .F. ) ;
#76 = CARTESIAN_POINT ( 'NONE',  ( -0.9999999999999997780, 1.129999999999999005, 7.955354054813205344 ) ) ;
#77 = CARTESIAN_POINT ( 'NONE',  ( -1.000000000000000222, -3.369999999999999662, -1.399999999999999911 ) ) ;
#78 = ORIENTED_EDGE ( 'NONE', *, *, #696, .T. ) ;
#79 = VECTOR ( 'NONE', #260, 1000.000000000000000 ) ;
#80 = VECTOR ( 'NONE', #579, 1000.000000000000000 ) ;
#81 = CIRCLE ( 'NONE', #269, 1.000000000000000000 ) ;
#82 = ORIENTED_EDGE ( 'NONE', *, *, #601, .F. ) ;
#83 = DIRECTION ( 'NONE',  ( 1.000000000000000000, 0.000000000000000000, 0.000000000000000000 ) ) ;
#84 = DIRECTION ( 'NONE',  ( -1.000000000000000000, -1.582776894139422440E-16, 0.000000000000000000 ) ) ;
#85 = EDGE_CURVE ( 'NONE', #208, #186, #305, .T. ) ;
#86 = ORIENTED_EDGE ( 'NONE', *, *, #134, .F. ) ;
#87 = DIRECTION ( 'NONE',  ( 1.000000000000000000, 0.000000000000000000, 0.000000000000000000 ) ) ;
#88 = DIRECTION ( 'NONE',  ( -1.000000000000000000, -0.000000000000000000, -0.000000000000000000 ) ) ;
#89 = ORIENTED_EDGE ( 'NONE', *, *, #758, .F. ) ;
#90 = CARTESIAN_POINT ( 'NONE',  ( -1.000000000000000222, -2.369999999999999662, 7.955354054813165376 ) ) ;
#91 = CARTESIAN_POINT ( 'NONE',  ( -2.000000000000000000, 1.129999999999999227, 7.955354054813205344 ) ) ;
#92 = AXIS2_PLACEMENT_3D ( 'NONE', #90, #706, #351 ) ;
#93 = VERTEX_POINT ( 'NONE', #537 ) ;
#94 = CARTESIAN_POINT ( 'NONE',  ( -1.000000000000000444, -2.369999999999999662, 7.955354054813167153 ) ) ;
#95 = EDGE_CURVE ( 'NONE', #199, #61, #806, .T. ) ;
#96 = DIRECTION ( 'NONE',  ( -1.000000000000000000, 1.286886851614841826E-16, 0.000000000000000000 ) ) ;
#97 = EDGE_CURVE ( 'NONE', #755, #188, #194, .T. ) ;
#98 = VECTOR ( 'NONE', #458, 1000.000000000000000 ) ;
#99 = ORIENTED_EDGE ( 'NONE', *, *, #432, .T. ) ;
#100 = CARTESIAN_POINT ( 'NONE',  ( -2.000000000000000000, 3.611118645726067224E-31, 3.455354054813200015 ) ) ;
#101 = LINE ( 'NONE', #306, #80 ) ;
#102 = ORIENTED_EDGE ( 'NONE', *, *, #532, .F. ) ;
#103 = DIRECTION ( 'NONE',  ( -1.582776894139422193E-16, 1.000000000000000000, 1.066958341385370177E-14 ) ) ;
#104 = DIRECTION ( 'NONE',  ( 0.000000000000000000, 1.000000000000000000, -0.000000000000000000 ) ) ;
#105 = VECTOR ( 'NONE', #707, 1000.000000000000000 ) ;
#106 = ADVANCED_FACE ( 'NONE', ( #815 ), #819, .T. ) ;
#107 = ORIENTED_EDGE ( 'NONE', *, *, #544, .F. ) ;
#108 = DIRECTION ( 'NONE',  ( -1.000000000000000000, 0.000000000000000000, 0.000000000000000000 ) ) ;
#109 = ORIENTED_EDGE ( 'NONE', *, *, #747, .F. ) ;
#110 = ADVANCED_BREP_SHAPE_REPRESENTATION ( 'Part8^Lucky15', ( #763, #750 ), #16 ) ;
#111 = FACE_OUTER_BOUND ( 'NONE', #337, .T. ) ;
#112 = ORIENTED_EDGE ( 'NONE', *, *, #795, .T. ) ;
#113 = CARTESIAN_POINT ( 'NONE',  ( -2.000000000000000444, -1.369999999999999662, 4.455354054813082776 ) ) ;
#114 = EDGE_CURVE ( 'NONE', #208, #153, #161, .T. ) ;
#115 = DIRECTION ( 'NONE',  ( 1.000000000000000000, 0.000000000000000000, 0.000000000000000000 ) ) ;
#116 = CARTESIAN_POINT ( 'NONE',  ( 1.232595164407830946E-29, -7.954552196764171857E-14, 3.455354054813185805 ) ) ;
#117 = ORIENTED_EDGE ( 'NONE', *, *, #615, .F. ) ;
#118 = CARTESIAN_POINT ( 'NONE',  ( -2.000000000000000444, -1.369999999999999662, 4.455354054813082776 ) ) ;
#119 = SPHERICAL_SURFACE ( 'NONE', #600, 1.000000000000000000 ) ;
#120 = AXIS2_PLACEMENT_3D ( 'NONE', #228, #84, #494 ) ;
#121 = ORIENTED_EDGE ( 'NONE', *, *, #114, .T. ) ;
#122 = LINE ( 'NONE', #605, #51 ) ;
#123 = EDGE_CURVE ( 'NONE', #445, #208, #198, .T. ) ;
#124 = PLANE ( 'NONE',  #415 ) ;
#125 = MECHANICAL_DESIGN_GEOMETRIC_PRESENTATION_REPRESENTATION (  '', ( #539 ), #810 ) ;
#126 = EDGE_CURVE ( 'NONE', #451, #353, #739, .T. ) ;
#127 = CARTESIAN_POINT ( 'NONE',  ( -2.000000000000000000, -7.954552196764184479E-14, 3.455354054813200015 ) ) ;
#128 = ORIENTED_EDGE ( 'NONE', *, *, #319, .F. ) ;
#129 = DIRECTION ( 'NONE',  ( 1.000000000000000000, 0.000000000000000000, 0.000000000000000000 ) ) ;
#130 = APPLICATION_PROTOCOL_DEFINITION ( 'draft international standard', 'automotive_design', 1998, #677 ) ;
#131 = ORIENTED_EDGE ( 'NONE', *, *, #640, .F. ) ;
#132 = DIRECTION ( 'NONE',  ( 0.000000000000000000, -0.000000000000000000, -1.000000000000000000 ) ) ;
#133 = CARTESIAN_POINT ( 'NONE',  ( 3.500000000000000444, -1.369999999999999662, 5.955354054813082776 ) ) ;
#134 = EDGE_CURVE ( 'NONE', #566, #348, #545, .T. ) ;
#135 = AXIS2_PLACEMENT_3D ( 'NONE', #200, #400, #66 ) ;
#136 = ORIENTED_EDGE ( 'NONE', *, *, #123, .T. ) ;
#137 = DIRECTION ( 'NONE',  ( 0.000000000000000000, 0.000000000000000000, -1.000000000000000000 ) ) ;
#138 = CARTESIAN_POINT ( 'NONE',  ( 1.980475968406855341E-16, -1.370000000000000329, -1.399999999999999911 ) ) ;
#139 = ORIENTED_EDGE ( 'NONE', *, *, #257, .F. ) ;
#140 = ADVANCED_FACE ( 'NONE', ( #757 ), #398, .T. ) ;
#141 = CARTESIAN_POINT ( 'NONE',  ( 5.144917075172873669E-37, -1.837002704357763860E-16, -1.399999999999999911 ) ) ;
#142 = AXIS2_PLACEMENT_3D ( 'NONE', #184, #33, #303 ) ;
#143 = DIRECTION ( 'NONE',  ( 0.000000000000000000, 1.084202172485504434E-14, -1.000000000000000000 ) ) ;
#144 = EDGE_LOOP ( 'NONE', ( #447, #403, #690 ) ) ;
#145 = CARTESIAN_POINT ( 'NONE',  ( 2.500000000000000444, -2.369999999999999662, -1.399999999999999911 ) ) ;
#146 = ORIENTED_EDGE ( 'NONE', *, *, #731, .F. ) ;
#147 = DIRECTION ( 'NONE',  ( -0.000000000000000000, -1.000000000000000000, -0.000000000000000000 ) ) ;
#148 = VECTOR ( 'NONE', #729, 1000.000000000000000 ) ;
#149 = CARTESIAN_POINT ( 'NONE',  ( 2.500000000000000444, -3.369999999999999662, 4.455354054813082776 ) ) ;
#150 = AXIS2_PLACEMENT_3D ( 'NONE', #94, #774, #362 ) ;
#151 = ORIENTED_EDGE ( 'NONE', *, *, #692, .F. ) ;
#152 = LINE ( 'NONE', #422, #192 ) ;
#153 = VERTEX_POINT ( 'NONE', #489 ) ;
#154 = CARTESIAN_POINT ( 'NONE',  ( 2.500000000000000444, -2.369999999999999662, 7.955354054813143172 ) ) ;
#155 = PRODUCT_DEFINITION_SHAPE ( 'NONE', 'NONE',  #217 ) ;
#156 = DIRECTION ( 'NONE',  ( 1.000000000000000000, 0.000000000000000000, 0.000000000000000000 ) ) ;
#157 = ORIENTED_EDGE ( 'NONE', *, *, #18, .T. ) ;
#158 =( LENGTH_UNIT ( ) NAMED_UNIT ( * ) SI_UNIT ( .MILLI., .METRE. ) );
#159 = ADVANCED_FACE ( 'NONE', ( #21 ), #561, .T. ) ;
#160 = LINE ( 'NONE', #644, #105 ) ;
#161 = CIRCLE ( 'NONE', #387, 1.000000000000000000 ) ;
#162 = CARTESIAN_POINT ( 'NONE',  ( 2.500000000000007105, 1.129999999999988347, 8.955354054813181364 ) ) ;
#163 = CIRCLE ( 'NONE', #207, 1.000000000000000000 ) ;
#164 = VERTEX_POINT ( 'NONE', #31 ) ;
#165 =( LENGTH_UNIT ( ) NAMED_UNIT ( * ) SI_UNIT ( .MILLI., .METRE. ) );
#166 = CYLINDRICAL_SURFACE ( 'NONE', #577, 0.9999999999999991118 ) ;
#167 = ORIENTED_EDGE ( 'NONE', *, *, #550, .F. ) ;
#168 = CARTESIAN_POINT ( 'NONE',  ( 5.201643631182652371E-14, 1.577021341797142180E-16, 3.455354054813185805 ) ) ;
#169 = CARTESIAN_POINT ( 'NONE',  ( -1.000000000000000222, -3.369999999999999662, 4.455354054813082776 ) ) ;
#170 = EDGE_CURVE ( 'NONE', #215, #427, #430, .T. ) ;
#171 = ORIENTED_EDGE ( 'NONE', *, *, #743, .F. ) ;
#172 = DIRECTION ( 'NONE',  ( 0.000000000000000000, 0.000000000000000000, 1.000000000000000000 ) ) ;
#173 = VECTOR ( 'NONE', #664, 1000.000000000000000 ) ;
#174 = CARTESIAN_POINT ( 'NONE',  ( -1.000000000000000222, -2.369999999999999662, -1.399999999999999911 ) ) ;
#175 = PLANE ( 'NONE',  #304 ) ;
#176 = EDGE_CURVE ( 'NONE', #797, #61, #232, .T. ) ;
#177 = ORIENTED_EDGE ( 'NONE', *, *, #704, .F. ) ;
#178 = VECTOR ( 'NONE', #63, 1000.000000000000000 ) ;
#179 = CARTESIAN_POINT ( 'NONE',  ( -2.907513985758349402E-32, -4.601945956045532941E-48, -1.399999999999999911 ) ) ;
#180 = ORIENTED_EDGE ( 'NONE', *, *, #227, .T. ) ;
#181 = AXIS2_PLACEMENT_3D ( 'NONE', #831, #104, #792 ) ;
#182 = DIRECTION ( 'NONE',  ( -0.000000000000000000, -0.000000000000000000, -1.000000000000000000 ) ) ;
#183 = ORIENTED_EDGE ( 'NONE', *, *, #853, .F. ) ;
#184 = CARTESIAN_POINT ( 'NONE',  ( 2.499999999999999556, 1.129999999999999005, 7.955354054813181364 ) ) ;
#185 = DIRECTION ( 'NONE',  ( 0.000000000000000000, 0.000000000000000000, 1.000000000000000000 ) ) ;
#186 = VERTEX_POINT ( 'NONE', #162 ) ;
#187 = EDGE_CURVE ( 'NONE', #199, #258, #101, .T. ) ;
#188 = VERTEX_POINT ( 'NONE', #737 ) ;
#189 = ADVANCED_FACE ( 'NONE', ( #877 ), #668, .T. ) ;
#190 = CARTESIAN_POINT ( 'NONE',  ( 2.500000000000006661, 2.129999999999998561, 8.955354054813190245 ) ) ;
#191 = DIRECTION ( 'NONE',  ( 6.977057820378727600E-15, 0.000000000000000000, 1.000000000000000000 ) ) ;
#192 = VECTOR ( 'NONE', #569, 1000.000000000000000 ) ;
#193 = VECTOR ( 'NONE', #2, 1000.000000000000000 ) ;
#194 = LINE ( 'NONE', #607, #193 ) ;
#195 = ORIENTED_EDGE ( 'NONE', *, *, #85, .F. ) ;
#196 = CARTESIAN_POINT ( 'NONE',  ( 2.500000000000000444, -2.369999999999999662, 7.955354054813143172 ) ) ;
#197 = CARTESIAN_POINT ( 'NONE',  ( 4.503937849144762887E-14, -2.369999999999999662, 7.955354054813160936 ) ) ;
#198 = LINE ( 'NONE', #477, #548 ) ;
#199 = VERTEX_POINT ( 'NONE', #870 ) ;
#200 = CARTESIAN_POINT ( 'NONE',  ( 2.500000000000000444, -2.369999999999999662, 4.455354054813082776 ) ) ;
#201 = ADVANCED_FACE ( 'NONE', ( #611 ), #124, .F. ) ;
#202 = CARTESIAN_POINT ( 'NONE',  ( 2.499999999999999556, 1.129999999999999005, 7.955354054813181364 ) ) ;
#203 = ORIENTED_EDGE ( 'NONE', *, *, #544, .T. ) ;
#204 = DIRECTION ( 'NONE',  ( 0.000000000000000000, -1.000000000000000000, -1.066958341385370019E-14 ) ) ;
#205 = EDGE_CURVE ( 'NONE', #665, #594, #449, .T. ) ;
#206 = DIRECTION ( 'NONE',  ( 2.168404344971194250E-16, -1.000000000000000000, -1.062518129035793714E-14 ) ) ;
#207 = AXIS2_PLACEMENT_3D ( 'NONE', #741, #132, #333 ) ;
#208 = VERTEX_POINT ( 'NONE', #599 ) ;
#209 = DIRECTION ( 'NONE',  ( 2.573773703229684144E-16, -1.000000000000000000, 0.000000000000000000 ) ) ;
#210 = DIRECTION ( 'NONE',  ( 0.000000000000000000, 0.000000000000000000, 1.000000000000000000 ) ) ;
#211 = ORIENTED_EDGE ( 'NONE', *, *, #731, .T. ) ;
#212 = DIRECTION ( 'NONE',  ( -0.000000000000000000, -0.000000000000000000, -1.000000000000000000 ) ) ;
#213 = AXIS2_PLACEMENT_3D ( 'NONE', #517, #377, #859 ) ;
#214 = EDGE_CURVE ( 'NONE', #506, #164, #802, .T. ) ;
#215 = VERTEX_POINT ( 'NONE', #396 ) ;
#216 = DIRECTION ( 'NONE',  ( -1.000000000000000000, 0.000000000000000000, -0.000000000000000000 ) ) ;
#217 = PRODUCT_DEFINITION ( 'UNKNOWN', '', #483, #596 ) ;
#218 = LINE ( 'NONE', #296, #484 ) ;
#219 = ORIENTED_EDGE ( 'NONE', *, *, #319, .T. ) ;
#220 = DIRECTION ( 'NONE',  ( 0.000000000000000000, -0.000000000000000000, -1.000000000000000000 ) ) ;
#221 = VECTOR ( 'NONE', #185, 1000.000000000000000 ) ;
#222 = CARTESIAN_POINT ( 'NONE',  ( 6.248202304239460722E-14, -9.554989708842225151E-14, 3.455354054813185805 ) ) ;
#223 = ORIENTED_EDGE ( 'NONE', *, *, #205, .T. ) ;
#224 = DIRECTION ( 'NONE',  ( 1.000000000000000000, 0.000000000000000000, 0.000000000000000000 ) ) ;
#225 = DIRECTION ( 'NONE',  ( -1.000000000000000000, 0.000000000000000000, 0.000000000000000000 ) ) ;
#226 = ADVANCED_FACE ( 'NONE', ( #534 ), #886, .F. ) ;
#227 = EDGE_CURVE ( 'NONE', #879, #353, #459, .T. ) ;
#228 = CARTESIAN_POINT ( 'NONE',  ( 1.500000000000000000, 2.374165341209133783E-16, -1.399999999999999911 ) ) ;
#229 = EDGE_LOOP ( 'NONE', ( #845, #344, #382, #645 ) ) ;
#230 = DIRECTION ( 'NONE',  ( 0.000000000000000000, 0.000000000000000000, -1.000000000000000000 ) ) ;
#231 = CARTESIAN_POINT ( 'NONE',  ( -2.000000000000000444, -2.369999999999999662, 7.955354054813167153 ) ) ;
#232 = LINE ( 'NONE', #493, #347 ) ;
#233 = ORIENTED_EDGE ( 'NONE', *, *, #602, .T. ) ;
#234 = DIRECTION ( 'NONE',  ( -1.000000000000000000, 0.000000000000000000, 0.000000000000000000 ) ) ;
#235 = FACE_OUTER_BOUND ( 'NONE', #663, .T. ) ;
#236 = AXIS2_PLACEMENT_3D ( 'NONE', #681, #270, #551 ) ;
#237 = ORIENTED_EDGE ( 'NONE', *, *, #571, .F. ) ;
#238 = CIRCLE ( 'NONE', #699, 1.000000000000000000 ) ;
#239 =( NAMED_UNIT ( * ) SI_UNIT ( $, .STERADIAN. ) SOLID_ANGLE_UNIT ( ) );
#240 = CARTESIAN_POINT ( 'NONE',  ( -2.000000000000000444, -2.369999999999999662, 5.955354054813082776 ) ) ;
#241 = CARTESIAN_POINT ( 'NONE',  ( 3.500000000000000444, -2.369999999999999218, -1.399999999999999911 ) ) ;
#242 = EDGE_LOOP ( 'NONE', ( #888, #511, #109, #872, #370, #32, #613, #55, #203, #78 ) ) ;
#243 = FACE_OUTER_BOUND ( 'NONE', #332, .T. ) ;
#244 = EDGE_CURVE ( 'NONE', #199, #848, #805, .T. ) ;
#245 = ORIENTED_EDGE ( 'NONE', *, *, #367, .T. ) ;
#246 = CARTESIAN_POINT ( 'NONE',  ( 8.341319650353084997E-14, 2.129999999999999005, 7.955354054813198239 ) ) ;
#247 = ORIENTED_EDGE ( 'NONE', *, *, #444, .F. ) ;
#248 = CARTESIAN_POINT ( 'NONE',  ( -0.9999999999999931166, -7.941683328248028571E-14, 8.955354054813192022 ) ) ;
#249 = CARTESIAN_POINT ( 'NONE',  ( 0.000000000000000000, -3.369999999999999662, -1.399999999999999911 ) ) ;
#250 = AXIS2_PLACEMENT_3D ( 'NONE', #9, #230, #234 ) ;
#251 = ORIENTED_EDGE ( 'NONE', *, *, #550, .T. ) ;
#252 = DIRECTION ( 'NONE',  ( 1.000000000000000000, 7.885106708985487801E-17, 0.000000000000000000 ) ) ;
#253 = CLOSED_SHELL ( 'NONE', ( #226, #256, #380, #411, #472, #410, #255, #443, #159, #871, #488, #298, #648, #407, #294, #519, #106, #140, #453, #570, #359, #189, #368, #695, #531, #502, #397, #201, #654, #474 ) ) ;
#254 = FACE_OUTER_BOUND ( 'NONE', #625, .T. ) ;
#255 = ADVANCED_FACE ( 'NONE', ( #606 ), #175, .F. ) ;
#256 = ADVANCED_FACE ( 'NONE', ( #588 ), #864, .F. ) ;
#257 = EDGE_CURVE ( 'NONE', #290, #451, #650, .T. ) ;
#258 = VERTEX_POINT ( 'NONE', #497 ) ;
#259 = CARTESIAN_POINT ( 'NONE',  ( 3.499999999999999556, 1.129999999999999227, 3.455354054813173814 ) ) ;
#260 = DIRECTION ( 'NONE',  ( -1.582776894139422193E-16, 1.000000000000000000, 1.066958341385370177E-14 ) ) ;
#261 = ORIENTED_EDGE ( 'NONE', *, *, #48, .F. ) ;
#262 = FACE_OUTER_BOUND ( 'NONE', #361, .T. ) ;
#263 = AXIS2_PLACEMENT_3D ( 'NONE', #501, #779, #252 ) ;
#264 = AXIS2_PLACEMENT_3D ( 'NONE', #222, #487, #28 ) ;
#265 = DIRECTION ( 'NONE',  ( -4.336808689942018229E-16, 1.000000000000000000, 1.084202172485505854E-14 ) ) ;
#266 = ORIENTED_EDGE ( 'NONE', *, *, #825, .F. ) ;
#267 = CYLINDRICAL_SURFACE ( 'NONE', #801, 0.9999999999999997780 ) ;
#268 = DIRECTION ( 'NONE',  ( 0.000000000000000000, 1.000000000000000000, -0.000000000000000000 ) ) ;
#269 = AXIS2_PLACEMENT_3D ( 'NONE', #496, #555, #839 ) ;
#270 = DIRECTION ( 'NONE',  ( 1.000000000000000000, -0.000000000000000000, -6.938893903907234689E-15 ) ) ;
#271 = ORIENTED_EDGE ( 'NONE', *, *, #747, .T. ) ;
#272 = CARTESIAN_POINT ( 'NONE',  ( 5.201643631182653002E-14, -7.954552196764170595E-14, 8.955354054813184916 ) ) ;
#273 = EDGE_CURVE ( 'NONE', #665, #727, #559, .T. ) ;
#274 = DIRECTION ( 'NONE',  ( 0.000000000000000000, 0.000000000000000000, 1.000000000000000000 ) ) ;
#275 = VERTEX_POINT ( 'NONE', #14 ) ;
#276 = DIRECTION ( 'NONE',  ( -1.000000000000000000, 0.000000000000000000, 0.000000000000000000 ) ) ;
#277 = DIRECTION ( 'NONE',  ( 0.000000000000000000, -1.000000000000000000, -1.066958341385370019E-14 ) ) ;
#278 = VECTOR ( 'NONE', #277, 1000.000000000000000 ) ;
#279 = AXIS2_PLACEMENT_3D ( 'NONE', #684, #710, #216 ) ;
#280 = VERTEX_POINT ( 'NONE', #91 ) ;
#281 = CARTESIAN_POINT ( 'NONE',  ( -1.000000000000000000, 1.129999999999999005, 7.955354054813205344 ) ) ;
#282 = VECTOR ( 'NONE', #425, 1000.000000000000000 ) ;
#283 = EDGE_CURVE ( 'NONE', #164, #8, #218, .T. ) ;
#284 = CARTESIAN_POINT ( 'NONE',  ( -1.243498156241759195E-32, 1.577021341797097560E-16, -1.399999999999999911 ) ) ;
#285 = VERTEX_POINT ( 'NONE', #231 ) ;
#286 = CARTESIAN_POINT ( 'NONE',  ( -2.000000000000000444, -2.369999999999999662, -1.399999999999999911 ) ) ;
#287 = DIRECTION ( 'NONE',  ( 2.573773703229684637E-16, -1.000000000000000000, -1.066958341385370177E-14 ) ) ;
#288 = ORIENTED_EDGE ( 'NONE', *, *, #683, .F. ) ;
#289 = CARTESIAN_POINT ( 'NONE',  ( -0.9999999999999997780, 1.129999999999999005, 7.955354054813205344 ) ) ;
#290 = VERTEX_POINT ( 'NONE', #835 ) ;
#291 = SURFACE_STYLE_FILL_AREA ( #638 ) ;
#292 = CIRCLE ( 'NONE', #592, 1.000000000000000000 ) ;
#293 = FACE_OUTER_BOUND ( 'NONE', #515, .T. ) ;
#294 = ADVANCED_FACE ( 'NONE', ( #770 ), #635, .T. ) ;
#295 = ORIENTED_EDGE ( 'NONE', *, *, #310, .T. ) ;
#296 = CARTESIAN_POINT ( 'NONE',  ( -2.000000000000000444, -1.369999999999999662, 5.955354054813082776 ) ) ;
#297 = AXIS2_PLACEMENT_3D ( 'NONE', #733, #437, #524 ) ;
#298 = ADVANCED_FACE ( 'NONE', ( #767 ), #482, .F. ) ;
#299 = ORIENTED_EDGE ( 'NONE', *, *, #43, .F. ) ;
#300 = LINE ( 'NONE', #762, #580 ) ;
#301 = CARTESIAN_POINT ( 'NONE',  ( 2.500000000000000000, -6.823249512798040286E-14, 7.955354054813168929 ) ) ;
#302 = ORIENTED_EDGE ( 'NONE', *, *, #865, .F. ) ;
#303 = DIRECTION ( 'NONE',  ( -7.372574772901430151E-15, 0.000000000000000000, -1.000000000000000000 ) ) ;
#304 = AXIS2_PLACEMENT_3D ( 'NONE', #455, #315, #881 ) ;
#305 = CIRCLE ( 'NONE', #808, 1.000000000000000888 ) ;
#306 = CARTESIAN_POINT ( 'NONE',  ( 1.500000000000000000, 2.374165341209133783E-16, -1.399999999999999911 ) ) ;
#307 = DIRECTION ( 'NONE',  ( 0.000000000000000000, -0.000000000000000000, -1.000000000000000000 ) ) ;
#308 = VECTOR ( 'NONE', #507, 1000.000000000000000 ) ;
#309 = FACE_OUTER_BOUND ( 'NONE', #313, .T. ) ;
#310 = EDGE_CURVE ( 'NONE', #280, #566, #152, .T. ) ;
#311 = ORIENTED_EDGE ( 'NONE', *, *, #227, .F. ) ;
#312 = FACE_OUTER_BOUND ( 'NONE', #542, .T. ) ;
#313 = EDGE_LOOP ( 'NONE', ( #655, #44, #261, #15 ) ) ;
#314 = CARTESIAN_POINT ( 'NONE',  ( 2.500000000000000444, -2.369999999999999662, -1.399999999999999911 ) ) ;
#315 = DIRECTION ( 'NONE',  ( 7.885106708985487801E-17, -1.000000000000000000, 0.000000000000000000 ) ) ;
#316 = ORIENTED_EDGE ( 'NONE', *, *, #13, .F. ) ;
#317 = LINE ( 'NONE', #452, #608 ) ;
#318 = DIRECTION ( 'NONE',  ( -1.286886851614841826E-16, -1.000000000000000000, -1.066958341385369862E-14 ) ) ;
#319 = EDGE_CURVE ( 'NONE', #186, #538, #355, .T. ) ;
#320 = DIRECTION ( 'NONE',  ( 0.000000000000000000, 0.000000000000000000, 1.000000000000000000 ) ) ;
#321 = EDGE_CURVE ( 'NONE', #215, #445, #693, .T. ) ;
#322 = CIRCLE ( 'NONE', #135, 1.000000000000000000 ) ;
#323 = ORIENTED_EDGE ( 'NONE', *, *, #1, .T. ) ;
#324 = CARTESIAN_POINT ( 'NONE',  ( -1.000000000000000222, -3.369999999999999662, 5.955354054813082776 ) ) ;
#325 = DIRECTION ( 'NONE',  ( -1.000000000000000000, -1.582776894139422440E-16, 0.000000000000000000 ) ) ;
#326 = DIRECTION ( 'NONE',  ( -1.000000000000000000, 0.000000000000000000, 6.977057820378718134E-15 ) ) ;
#327 = ORIENTED_EDGE ( 'NONE', *, *, #758, .T. ) ;
#328 = AXIS2_PLACEMENT_3D ( 'NONE', #174, #366, #591 ) ;
#329 = DIRECTION ( 'NONE',  ( -0.000000000000000000, -0.000000000000000000, -1.000000000000000000 ) ) ;
#330 = DIRECTION ( 'NONE',  ( -1.000000000000000000, -1.445602896647339163E-16, 0.000000000000000000 ) ) ;
#331 = CARTESIAN_POINT ( 'NONE',  ( 0.000000000000000000, 0.000000000000000000, 0.000000000000000000 ) ) ;
#332 = EDGE_LOOP ( 'NONE', ( #121, #99, #195 ) ) ;
#333 = DIRECTION ( 'NONE',  ( 1.000000000000000000, 0.000000000000000000, 0.000000000000000000 ) ) ;
#334 = VECTOR ( 'NONE', #108, 1000.000000000000000 ) ;
#335 = AXIS2_PLACEMENT_3D ( 'NONE', #249, #518, #794 ) ;
#336 = CARTESIAN_POINT ( 'NONE',  ( 3.500000000000000888, -3.369999999999989004, 7.955354054813132514 ) ) ;
#337 = EDGE_LOOP ( 'NONE', ( #117, #509, #146, #761 ) ) ;
#338 = EDGE_CURVE ( 'NONE', #717, #773, #429, .T. ) ;
#339 = CARTESIAN_POINT ( 'NONE',  ( -2.000000000000000000, 1.129999999999999227, 3.455354054813212006 ) ) ;
#340 = CARTESIAN_POINT ( 'NONE',  ( 3.500000000000000000, 2.439472286069592599E-16, -1.399999999999999911 ) ) ;
#341 = ORIENTED_EDGE ( 'NONE', *, *, #587, .T. ) ;
#342 = CARTESIAN_POINT ( 'NONE',  ( 3.500000000000000000, -7.883290082140685630E-14, 3.455354054813161824 ) ) ;
#343 = DIRECTION ( 'NONE',  ( 1.000000000000000000, 7.885106708985487801E-17, 0.000000000000000000 ) ) ;
#344 = ORIENTED_EDGE ( 'NONE', *, *, #95, .F. ) ;
#345 = DIRECTION ( 'NONE',  ( 0.000000000000000000, 1.000000000000000000, 1.084202172485504434E-14 ) ) ;
#346 = DIRECTION ( 'NONE',  ( 0.000000000000000000, -0.000000000000000000, 1.000000000000000000 ) ) ;
#347 = VECTOR ( 'NONE', #498, 1000.000000000000000 ) ;
#348 = VERTEX_POINT ( 'NONE', #100 ) ;
#349 = VECTOR ( 'NONE', #558, 1000.000000000000000 ) ;
#350 = ORIENTED_EDGE ( 'NONE', *, *, #48, .T. ) ;
#351 = DIRECTION ( 'NONE',  ( 0.000000000000000000, 1.084202172485504434E-14, -1.000000000000000000 ) ) ;
#352 = DIRECTION ( 'NONE',  ( -1.286886851614841826E-16, -1.000000000000000000, 0.000000000000000000 ) ) ;
#353 = VERTEX_POINT ( 'NONE', #149 ) ;
#354 = CARTESIAN_POINT ( 'NONE',  ( 1.500000000000000222, -1.370000000000000107, 3.455354054813161824 ) ) ;
#355 = LINE ( 'NONE', #10, #576 ) ;
#356 = ORIENTED_EDGE ( 'NONE', *, *, #772, .F. ) ;
#357 = FACE_OUTER_BOUND ( 'NONE', #878, .T. ) ;
#358 = CIRCLE ( 'NONE', #401, 1.000000000000000888 ) ;
#359 = ADVANCED_FACE ( 'NONE', ( #293 ), #775, .T. ) ;
#360 = DIRECTION ( 'NONE',  ( 0.000000000000000000, 1.000000000000000000, 1.084202172485504434E-14 ) ) ;
#361 = EDGE_LOOP ( 'NONE', ( #705, #233, #167 ) ) ;
#362 = DIRECTION ( 'NONE',  ( 1.000000000000000000, 0.000000000000000000, 0.000000000000000000 ) ) ;
#363 = CYLINDRICAL_SURFACE ( 'NONE', #643, 1.000000000000000000 ) ;
#364 = AXIS2_PLACEMENT_3D ( 'NONE', #314, #527, #652 ) ;
#365 = EDGE_LOOP ( 'NONE', ( #660, #323, #399, #180 ) ) ;
#366 = DIRECTION ( 'NONE',  ( 0.000000000000000000, 0.000000000000000000, -1.000000000000000000 ) ) ;
#367 = EDGE_CURVE ( 'NONE', #866, #562, #160, .T. ) ;
#368 = ADVANCED_FACE ( 'NONE', ( #426 ), #166, .T. ) ;
#369 = VECTOR ( 'NONE', #52, 1000.000000000000000 ) ;
#370 = ORIENTED_EDGE ( 'NONE', *, *, #444, .T. ) ;
#371 = CARTESIAN_POINT ( 'NONE',  ( 2.500000000000000444, -3.369999999999999662, -1.399999999999999911 ) ) ;
#372 = CYLINDRICAL_SURFACE ( 'NONE', #364, 1.000000000000000000 ) ;
#373 = AXIS2_PLACEMENT_3D ( 'NONE', #840, #492, #156 ) ;
#374 = ORIENTED_EDGE ( 'NONE', *, *, #615, .T. ) ;
#375 = LINE ( 'NONE', #651, #833 ) ;
#376 = ORIENTED_EDGE ( 'NONE', *, *, #205, .F. ) ;
#377 = DIRECTION ( 'NONE',  ( -1.000000000000000000, -2.573773703229684637E-16, 0.000000000000000000 ) ) ;
#378 = ORIENTED_EDGE ( 'NONE', *, *, #273, .F. ) ;
#379 = CARTESIAN_POINT ( 'NONE',  ( -0.9999999999999997780, 2.129999999999999005, 7.955354054813205344 ) ) ;
#380 = ADVANCED_FACE ( 'NONE', ( #574 ), #433, .T. ) ;
#381 = CARTESIAN_POINT ( 'NONE',  ( -2.907513985758349402E-32, -4.601945956045532941E-48, -1.399999999999999911 ) ) ;
#382 = ORIENTED_EDGE ( 'NONE', *, *, #187, .T. ) ;
#383 = DIRECTION ( 'NONE',  ( 0.000000000000000000, -0.000000000000000000, -1.000000000000000000 ) ) ;
#384 = UNCERTAINTY_MEASURE_WITH_UNIT (LENGTH_MEASURE( 1.000000000000000082E-05 ), #158, 'distance_accuracy_value', 'NONE');
#385 = ORIENTED_EDGE ( 'NONE', *, *, #423, .F. ) ;
#386 = CARTESIAN_POINT ( 'NONE',  ( 3.500000000000000444, -2.369999999999999218, -1.399999999999999911 ) ) ;
#387 = AXIS2_PLACEMENT_3D ( 'NONE', #202, #468, #890 ) ;
#388 = ORIENTED_EDGE ( 'NONE', *, *, #825, .T. ) ;
#389 = DIRECTION ( 'NONE',  ( 0.000000000000000000, 0.000000000000000000, 1.000000000000000000 ) ) ;
#390 = VECTOR ( 'NONE', #182, 1000.000000000000000 ) ;
#391 = FACE_OUTER_BOUND ( 'NONE', #413, .T. ) ;
#392 = CARTESIAN_POINT ( 'NONE',  ( 0.000000000000000000, -3.369999999999999662, -1.399999999999999911 ) ) ;
#393 = CARTESIAN_POINT ( 'NONE',  ( -1.000000000000000000, -9.968904176880231009E-14, 7.955354054813193798 ) ) ;
#394 = ORIENTED_EDGE ( 'NONE', *, *, #826, .F. ) ;
#395 = SPHERICAL_SURFACE ( 'NONE', #708, 1.000000000000000000 ) ;
#396 = CARTESIAN_POINT ( 'NONE',  ( 2.499999999999999556, 2.129999999999999005, 3.455354054813191134 ) ) ;
#397 = ADVANCED_FACE ( 'NONE', ( #632 ), #363, .T. ) ;
#398 = CYLINDRICAL_SURFACE ( 'NONE', #623, 1.000000000000000000 ) ;
#399 = ORIENTED_EDGE ( 'NONE', *, *, #854, .F. ) ;
#400 = DIRECTION ( 'NONE',  ( -0.000000000000000000, -0.000000000000000000, 1.000000000000000000 ) ) ;
#401 = AXIS2_PLACEMENT_3D ( 'NONE', #885, #540, #880 ) ;
#402 = CARTESIAN_POINT ( 'NONE',  ( 3.500000000000000444, -1.369999999999999662, 5.955354054813082776 ) ) ;
#403 = ORIENTED_EDGE ( 'NONE', *, *, #743, .T. ) ;
#404 = VECTOR ( 'NONE', #210, 1000.000000000000000 ) ;
#405 = DIRECTION ( 'NONE',  ( -0.000000000000000000, -0.000000000000000000, 1.000000000000000000 ) ) ;
#406 = AXIS2_PLACEMENT_3D ( 'NONE', #62, #821, #345 ) ;
#407 = ADVANCED_FACE ( 'NONE', ( #235 ), #716, .T. ) ;
#408 = ORIENTED_EDGE ( 'NONE', *, *, #29, .T. ) ;
#409 = DIRECTION ( 'NONE',  ( 0.000000000000000000, -1.062518129035795292E-14, 1.000000000000000000 ) ) ;
#410 = ADVANCED_FACE ( 'NONE', ( #254 ), #804, .T. ) ;
#411 = ADVANCED_FACE ( 'NONE', ( #111 ), #598, .T. ) ;
#412 = CARTESIAN_POINT ( 'NONE',  ( 1.500000000000000222, -1.370000000000000107, -1.399999999999999911 ) ) ;
#413 = EDGE_LOOP ( 'NONE', ( #139, #782, #82, #23 ) ) ;
#414 = DIRECTION ( 'NONE',  ( 0.000000000000000000, -0.000000000000000000, 1.000000000000000000 ) ) ;
#415 = AXIS2_PLACEMENT_3D ( 'NONE', #593, #320, #465 ) ;
#416 = VECTOR ( 'NONE', #343, 1000.000000000000000 ) ;
#417 = ORIENTED_EDGE ( 'NONE', *, *, #796, .F. ) ;
#418 = SURFACE_STYLE_USAGE ( .BOTH. , #834 ) ;
#419 = CARTESIAN_POINT ( 'NONE',  ( 4.503937849144789393E-14, 1.129999999999999005, 7.955354054813198239 ) ) ;
#420 = VECTOR ( 'NONE', #436, 1000.000000000000000 ) ;
#421 = ORIENTED_EDGE ( 'NONE', *, *, #310, .F. ) ;
#422 = CARTESIAN_POINT ( 'NONE',  ( -2.000000000000000000, 1.129999999999999227, -1.399999999999999911 ) ) ;
#423 = EDGE_CURVE ( 'NONE', #562, #186, #788, .T. ) ;
#424 = ORIENTED_EDGE ( 'NONE', *, *, #503, .F. ) ;
#425 = DIRECTION ( 'NONE',  ( 0.000000000000000000, 0.000000000000000000, 1.000000000000000000 ) ) ;
#426 = FACE_OUTER_BOUND ( 'NONE', #725, .T. ) ;
#427 = VERTEX_POINT ( 'NONE', #724 ) ;
#428 = CIRCLE ( 'NONE', #667, 0.9999999999999991118 ) ;
#429 = LINE ( 'NONE', #504, #807 ) ;
#430 = LINE ( 'NONE', #771, #735 ) ;
#431 = ORIENTED_EDGE ( 'NONE', *, *, #423, .T. ) ;
#432 = EDGE_CURVE ( 'NONE', #153, #186, #450, .T. ) ;
#433 = PLANE ( 'NONE',  #460 ) ;
#434 = AXIS2_PLACEMENT_3D ( 'NONE', #381, #325, #855 ) ;
#435 = ORIENTED_EDGE ( 'NONE', *, *, #836, .F. ) ;
#436 = DIRECTION ( 'NONE',  ( -1.000000000000000000, -7.885106708985487801E-17, 6.977057820378717345E-15 ) ) ;
#437 = DIRECTION ( 'NONE',  ( 0.000000000000000000, 1.000000000000000000, -0.000000000000000000 ) ) ;
#438 = ORIENTED_EDGE ( 'NONE', *, *, #532, .T. ) ;
#439 = CARTESIAN_POINT ( 'NONE',  ( 1.500000000000000000, -7.930810543352069298E-14, 3.455354054813175591 ) ) ;
#440 = ORIENTED_EDGE ( 'NONE', *, *, #42, .F. ) ;
#441 = DIRECTION ( 'NONE',  ( 0.000000000000000000, -1.000000000000000000, 0.000000000000000000 ) ) ;
#442 = AXIS2_PLACEMENT_3D ( 'NONE', #780, #764, #83 ) ;
#443 = ADVANCED_FACE ( 'NONE', ( #578 ), #784, .F. ) ;
#444 = EDGE_CURVE ( 'NONE', #575, #499, #54, .T. ) ;
#445 = VERTEX_POINT ( 'NONE', #259 ) ;
#446 = DIRECTION ( 'NONE',  ( 0.000000000000000000, -0.000000000000000000, 1.000000000000000000 ) ) ;
#447 = ORIENTED_EDGE ( 'NONE', *, *, #704, .T. ) ;
#448 = FACE_OUTER_BOUND ( 'NONE', #789, .T. ) ;
#449 = LINE ( 'NONE', #116, #79 ) ;
#450 = CIRCLE ( 'NONE', #142, 1.000000000000000000 ) ;
#451 = VERTEX_POINT ( 'NONE', #169 ) ;
#452 = CARTESIAN_POINT ( 'NONE',  ( -2.000000000000000000, -9.956035308364081412E-14, 7.955354054813193798 ) ) ;
#453 = ADVANCED_FACE ( 'NONE', ( #312 ), #508, .T. ) ;
#454 = CARTESIAN_POINT ( 'NONE',  ( 1.980475968406855341E-16, -1.370000000000000329, -1.399999999999999911 ) ) ;
#455 = CARTESIAN_POINT ( 'NONE',  ( -1.243498156241759195E-32, 1.577021341797097560E-16, -1.399999999999999911 ) ) ;
#456 = ORIENTED_EDGE ( 'NONE', *, *, #97, .F. ) ;
#457 = VERTEX_POINT ( 'NONE', #862 ) ;
#458 = DIRECTION ( 'NONE',  ( -2.573773703229684637E-16, 1.000000000000000000, 1.066958341385370177E-14 ) ) ;
#459 = LINE ( 'NONE', #673, #221 ) ;
#460 = AXIS2_PLACEMENT_3D ( 'NONE', #700, #96, #352 ) ;
#461 = VECTOR ( 'NONE', #346, 1000.000000000000000 ) ;
#462 = CARTESIAN_POINT ( 'NONE',  ( -2.000000000000000444, -2.369999999999999662, 8.955354054813163600 ) ) ;
#463 = ORIENTED_EDGE ( 'NONE', *, *, #273, .T. ) ;
#464 = LINE ( 'NONE', #467, #525 ) ;
#465 = DIRECTION ( 'NONE',  ( 1.000000000000000000, 0.000000000000000000, -0.000000000000000000 ) ) ;
#466 = ORIENTED_EDGE ( 'NONE', *, *, #503, .T. ) ;
#467 = CARTESIAN_POINT ( 'NONE',  ( 3.500000000000000000, 9.008207961303895244E-16, -1.399999999999999911 ) ) ;
#468 = DIRECTION ( 'NONE',  ( 0.000000000000000000, 0.000000000000000000, 1.000000000000000000 ) ) ;
#469 = ORIENTED_EDGE ( 'NONE', *, *, #823, .T. ) ;
#470 = FACE_OUTER_BOUND ( 'NONE', #495, .T. ) ;
#471 = AXIS2_PLACEMENT_3D ( 'NONE', #272, #543, #204 ) ;
#472 = ADVANCED_FACE ( 'NONE', ( #719 ), #372, .T. ) ;
#473 = DIRECTION ( 'NONE',  ( -2.038300084272746443E-14, -1.062518129035793399E-14, 1.000000000000000000 ) ) ;
#474 = ADVANCED_FACE ( 'NONE', ( #448 ), #666, .T. ) ;
#475 = ORIENTED_EDGE ( 'NONE', *, *, #572, .F. ) ;
#476 = DIRECTION ( 'NONE',  ( 0.000000000000000000, 0.000000000000000000, 1.000000000000000000 ) ) ;
#477 = CARTESIAN_POINT ( 'NONE',  ( 3.499999999999999556, 1.129999999999999227, 8.955354054813183140 ) ) ;
#478 = ORIENTED_EDGE ( 'NONE', *, *, #170, .F. ) ;
#479 = DIRECTION ( 'NONE',  ( -2.036060417813155119E-16, 1.000000000000000000, 1.066958341385370177E-14 ) ) ;
#480 = EDGE_LOOP ( 'NONE', ( #102, #421, #730, #237 ) ) ;
#481 = DIRECTION ( 'NONE',  ( 1.000000000000000000, 0.000000000000000000, 0.000000000000000000 ) ) ;
#482 = PLANE ( 'NONE',  #442 ) ;
#483 = PRODUCT_DEFINITION_FORMATION_WITH_SPECIFIED_SOURCE ( 'ANY', '', #847, .NOT_KNOWN. ) ;
#484 = VECTOR ( 'NONE', #628, 1000.000000000000000 ) ;
#485 = EDGE_LOOP ( 'NONE', ( #573, #456, #177, #604 ) ) ;
#486 = PRESENTATION_STYLE_ASSIGNMENT (( #418 ) ) ;
#487 = DIRECTION ( 'NONE',  ( -6.977057820378718134E-15, 1.066958341385370019E-14, -1.000000000000000000 ) ) ;
#488 = ADVANCED_FACE ( 'NONE', ( #512 ), #583, .F. ) ;
#489 = CARTESIAN_POINT ( 'NONE',  ( 2.499999999999999556, 2.129999999999999005, 7.955354054813181364 ) ) ;
#490 = ORIENTED_EDGE ( 'NONE', *, *, #669, .F. ) ;
#491 = LINE ( 'NONE', #769, #282 ) ;
#492 = DIRECTION ( 'NONE',  ( 0.000000000000000000, 0.000000000000000000, 1.000000000000000000 ) ) ;
#493 = CARTESIAN_POINT ( 'NONE',  ( 5.201643631182652371E-14, 1.577021341797142180E-16, 3.455354054813185805 ) ) ;
#494 = DIRECTION ( 'NONE',  ( 1.582776894139422440E-16, -1.000000000000000000, 0.000000000000000000 ) ) ;
#495 = EDGE_LOOP ( 'NONE', ( #65, #630, #521, #288, #785, #713 ) ) ;
#496 = CARTESIAN_POINT ( 'NONE',  ( 2.500000000000000888, -2.369999999999999662, 7.955354054813141396 ) ) ;
#497 = CARTESIAN_POINT ( 'NONE',  ( 1.500000000000000222, -1.370000000000000107, -1.399999999999999911 ) ) ;
#498 = DIRECTION ( 'NONE',  ( -1.000000000000000000, -7.885106708985487801E-17, 6.977057820378717345E-15 ) ) ;
#499 = VERTEX_POINT ( 'NONE', #656 ) ;
#500 = AXIS2_PLACEMENT_3D ( 'NONE', #393, #811, #616 ) ;
#501 = CARTESIAN_POINT ( 'NONE',  ( -1.243498156241759195E-32, 1.577021341797097560E-16, -1.399999999999999911 ) ) ;
#502 = ADVANCED_FACE ( 'NONE', ( #243 ), #119, .T. ) ;
#503 = EDGE_CURVE ( 'NONE', #538, #866, #47, .T. ) ;
#504 = CARTESIAN_POINT ( 'NONE',  ( -2.000000000000000444, -3.369999999999999662, 5.955354054813082776 ) ) ;
#505 = PRESENTATION_LAYER_ASSIGNMENT (  '', '', ( #539 ) ) ;
#506 = VERTEX_POINT ( 'NONE', #869 ) ;
#507 = DIRECTION ( 'NONE',  ( -0.000000000000000000, -1.000000000000000000, -0.000000000000000000 ) ) ;
#508 = SPHERICAL_SURFACE ( 'NONE', #297, 1.000000000000000000 ) ;
#509 = ORIENTED_EDGE ( 'NONE', *, *, #863, .F. ) ;
#510 = LINE ( 'NONE', #168, #420 ) ;
#511 = ORIENTED_EDGE ( 'NONE', *, *, #601, .T. ) ;
#512 = FACE_OUTER_BOUND ( 'NONE', #820, .T. ) ;
#513 = EDGE_CURVE ( 'NONE', #275, #791, #800, .T. ) ;
#514 = VECTOR ( 'NONE', #172, 1000.000000000000000 ) ;
#515 = EDGE_LOOP ( 'NONE', ( #131, #311, #723, #734 ) ) ;
#516 = LINE ( 'NONE', #646, #7 ) ;
#517 = CARTESIAN_POINT ( 'NONE',  ( 3.500000000000000000, 9.008207961303895244E-16, -1.399999999999999911 ) ) ;
#518 = DIRECTION ( 'NONE',  ( 0.000000000000000000, 1.000000000000000000, -0.000000000000000000 ) ) ;
#519 = ADVANCED_FACE ( 'NONE', ( #391 ), #267, .T. ) ;
#520 = VECTOR ( 'NONE', #624, 1000.000000000000000 ) ;
#521 = ORIENTED_EDGE ( 'NONE', *, *, #640, .T. ) ;
#522 = CARTESIAN_POINT ( 'NONE',  ( -2.000000000000000444, -2.369999999999999662, 8.955354054813163600 ) ) ;
#523 = ORIENTED_EDGE ( 'NONE', *, *, #283, .F. ) ;
#524 = DIRECTION ( 'NONE',  ( 0.000000000000000000, 0.000000000000000000, 1.000000000000000000 ) ) ;
#525 = VECTOR ( 'NONE', #209, 1000.000000000000000 ) ;
#526 = LINE ( 'NONE', #37, #67 ) ;
#527 = DIRECTION ( 'NONE',  ( 0.000000000000000000, 0.000000000000000000, 1.000000000000000000 ) ) ;
#528 = DIRECTION ( 'NONE',  ( -1.000000000000000000, -0.000000000000000000, -0.000000000000000000 ) ) ;
#529 = EDGE_LOOP ( 'NONE', ( #621, #778, #891, #46 ) ) ;
#530 = SHAPE_DEFINITION_REPRESENTATION ( #155, #110 ) ;
#531 = ADVANCED_FACE ( 'NONE', ( #676 ), #672, .T. ) ;
#532 = EDGE_CURVE ( 'NONE', #566, #427, #685, .T. ) ;
#533 = DIRECTION ( 'NONE',  ( 1.000000000000000000, 0.000000000000000000, 0.000000000000000000 ) ) ;
#534 = FACE_OUTER_BOUND ( 'NONE', #365, .T. ) ;
#535 = VECTOR ( 'NONE', #528, 1000.000000000000000 ) ;
#536 = VECTOR ( 'NONE', #60, 1000.000000000000000 ) ;
#537 = CARTESIAN_POINT ( 'NONE',  ( 3.500000000000000444, -2.369999999999999662, 4.455354054813082776 ) ) ;
#538 = VERTEX_POINT ( 'NONE', #71 ) ;
#539 = STYLED_ITEM ( 'NONE', ( #486 ), #763 ) ;
#540 = DIRECTION ( 'NONE',  ( 1.000000000000000000, 1.203706215242021147E-29, -6.938893903907221278E-15 ) ) ;
#541 = DIRECTION ( 'NONE',  ( 0.000000000000000000, 0.000000000000000000, 1.000000000000000000 ) ) ;
#542 = EDGE_LOOP ( 'NONE', ( #70, #211, #299 ) ) ;
#543 = DIRECTION ( 'NONE',  ( 6.977057820378718134E-15, -1.066958341385370019E-14, 1.000000000000000000 ) ) ;
#544 = EDGE_CURVE ( 'NONE', #848, #687, #464, .T. ) ;
#545 = LINE ( 'NONE', #127, #278 ) ;
#546 = ORIENTED_EDGE ( 'NONE', *, *, #826, .T. ) ;
#547 = DIRECTION ( 'NONE',  ( 0.000000000000000000, 0.000000000000000000, -1.000000000000000000 ) ) ;
#548 = VECTOR ( 'NONE', #274, 1000.000000000000000 ) ;
#549 = CIRCLE ( 'NONE', #92, 1.000000000000000000 ) ;
#550 = EDGE_CURVE ( 'NONE', #851, #538, #358, .T. ) ;
#551 = DIRECTION ( 'NONE',  ( 6.938893903907234689E-15, -1.084202172485505381E-14, 1.000000000000000000 ) ) ;
#552 = ORIENTED_EDGE ( 'NONE', *, *, #42, .T. ) ;
#553 = CARTESIAN_POINT ( 'NONE',  ( 2.500000000000007994, -2.370000000000010765, 8.955354054813142284 ) ) ;
#554 = ORIENTED_EDGE ( 'NONE', *, *, #772, .T. ) ;
#555 = DIRECTION ( 'NONE',  ( 1.000000000000000000, -4.336808689942137544E-16, -6.938893903907226011E-15 ) ) ;
#556 = DIRECTION ( 'NONE',  ( 6.977057820378722078E-15, 0.000000000000000000, 1.000000000000000000 ) ) ;
#557 = ORIENTED_EDGE ( 'NONE', *, *, #58, .T. ) ;
#558 = DIRECTION ( 'NONE',  ( -1.286886851614841826E-16, -1.000000000000000000, 0.000000000000000000 ) ) ;
#559 = LINE ( 'NONE', #24, #883 ) ;
#560 = VECTOR ( 'NONE', #103, 1000.000000000000000 ) ;
#561 = PLANE ( 'NONE',  #120 ) ;
#562 = VERTEX_POINT ( 'NONE', #553 ) ;
#563 =( NAMED_UNIT ( * ) SI_UNIT ( $, .STERADIAN. ) SOLID_ANGLE_UNIT ( ) );
#564 = VECTOR ( 'NONE', #405, 1000.000000000000000 ) ;
#565 = DIRECTION ( 'NONE',  ( -1.000000000000000000, 0.000000000000000000, 6.977057820378718134E-15 ) ) ;
#566 = VERTEX_POINT ( 'NONE', #339 ) ;
#567 = DIRECTION ( 'NONE',  ( 1.000000000000000000, 0.000000000000000000, 0.000000000000000000 ) ) ;
#568 = VECTOR ( 'NONE', #318, 1000.000000000000000 ) ;
#569 = DIRECTION ( 'NONE',  ( -0.000000000000000000, -0.000000000000000000, -1.000000000000000000 ) ) ;
#570 = ADVANCED_FACE ( 'NONE', ( #262 ), #395, .T. ) ;
#571 = EDGE_CURVE ( 'NONE', #427, #851, #746, .T. ) ;
#572 = EDGE_CURVE ( 'NONE', #153, #215, #4, .T. ) ;
#573 = ORIENTED_EDGE ( 'NONE', *, *, #43, .T. ) ;
#574 = FACE_OUTER_BOUND ( 'NONE', #768, .T. ) ;
#575 = VERTEX_POINT ( 'NONE', #141 ) ;
#576 = VECTOR ( 'NONE', #565, 1000.000000000000000 ) ;
#577 = AXIS2_PLACEMENT_3D ( 'NONE', #419, #712, #556 ) ;
#578 = FACE_OUTER_BOUND ( 'NONE', #720, .T. ) ;
#579 = DIRECTION ( 'NONE',  ( 1.582776894139422440E-16, -1.000000000000000000, 0.000000000000000000 ) ) ;
#580 = VECTOR ( 'NONE', #846, 1000.000000000000000 ) ;
#581 = ORIENTED_EDGE ( 'NONE', *, *, #338, .T. ) ;
#582 = LINE ( 'NONE', #722, #334 ) ;
#583 = PLANE ( 'NONE',  #213 ) ;
#584 = ORIENTED_EDGE ( 'NONE', *, *, #853, .T. ) ;
#585 = CARTESIAN_POINT ( 'NONE',  ( 2.500000000000000444, -3.369999999999999662, -1.399999999999999911 ) ) ;
#586 = DIRECTION ( 'NONE',  ( 0.000000000000000000, -0.000000000000000000, -1.000000000000000000 ) ) ;
#587 = EDGE_CURVE ( 'NONE', #797, #445, #688, .T. ) ;
#588 = FACE_OUTER_BOUND ( 'NONE', #529, .T. ) ;
#589 = ORIENTED_EDGE ( 'NONE', *, *, #513, .T. ) ;
#590 = LINE ( 'NONE', #595, #369 ) ;
#591 = DIRECTION ( 'NONE',  ( -1.000000000000000000, 0.000000000000000000, 0.000000000000000000 ) ) ;
#592 = AXIS2_PLACEMENT_3D ( 'NONE', #828, #212, #129 ) ;
#593 = CARTESIAN_POINT ( 'NONE',  ( -2.000000000000000444, -1.369999999999999662, 5.955354054813082776 ) ) ;
#594 = VERTEX_POINT ( 'NONE', #56 ) ;
#595 = CARTESIAN_POINT ( 'NONE',  ( 5.144917075172873669E-37, -1.837002704357763860E-16, -1.399999999999999911 ) ) ;
#596 = PRODUCT_DEFINITION_CONTEXT ( 'detailed design', #677, 'design' ) ;
#597 = ORIENTED_EDGE ( 'NONE', *, *, #134, .T. ) ;
#598 = CYLINDRICAL_SURFACE ( 'NONE', #328, 0.9999999999999997780 ) ;
#599 = CARTESIAN_POINT ( 'NONE',  ( 3.499999999999999556, 1.129999999999999227, 7.955354054813181364 ) ) ;
#600 = AXIS2_PLACEMENT_3D ( 'NONE', #728, #115, #661 ) ;
#601 = EDGE_CURVE ( 'NONE', #41, #697, #163, .T. ) ;
#602 = EDGE_CURVE ( 'NONE', #280, #538, #428, .T. ) ;
#603 = ORIENTED_EDGE ( 'NONE', *, *, #123, .F. ) ;
#604 = ORIENTED_EDGE ( 'NONE', *, *, #367, .F. ) ;
#605 = CARTESIAN_POINT ( 'NONE',  ( -2.000000000000000444, -1.369999999999999662, 4.455354054813082776 ) ) ;
#606 = FACE_OUTER_BOUND ( 'NONE', #11, .T. ) ;
#607 = CARTESIAN_POINT ( 'NONE',  ( -2.000000000000007550, -3.369999999999999662, 7.955354054813174258 ) ) ;
#608 = VECTOR ( 'NONE', #726, 1000.000000000000000 ) ;
#609 = ORIENTED_EDGE ( 'NONE', *, *, #72, .F. ) ;
#610 = DIRECTION ( 'NONE',  ( 1.000000000000000000, 0.000000000000000000, 0.000000000000000000 ) ) ;
#611 = FACE_OUTER_BOUND ( 'NONE', #740, .T. ) ;
#612 = LINE ( 'NONE', #340, #536 ) ;
#613 = ORIENTED_EDGE ( 'NONE', *, *, #187, .F. ) ;
#614 = FACE_OUTER_BOUND ( 'NONE', #50, .T. ) ;
#615 = EDGE_CURVE ( 'NONE', #773, #8, #292, .T. ) ;
#616 = DIRECTION ( 'NONE',  ( 0.000000000000000000, -1.066958341385368442E-14, 1.000000000000000000 ) ) ;
#617 = ORIENTED_EDGE ( 'NONE', *, *, #321, .F. ) ;
#618 = CARTESIAN_POINT ( 'NONE',  ( -1.000000000000000222, -2.369999999999999662, -1.399999999999999911 ) ) ;
#619 = EDGE_CURVE ( 'NONE', #803, #457, #122, .T. ) ;
#620 = CARTESIAN_POINT ( 'NONE',  ( 1.500000000000000000, 2.463428393587524428E-21, -1.399999999999999911 ) ) ;
#621 = ORIENTED_EDGE ( 'NONE', *, *, #338, .F. ) ;
#622 = DIRECTION ( 'NONE',  ( 0.000000000000000000, 0.000000000000000000, 1.000000000000000000 ) ) ;
#623 = AXIS2_PLACEMENT_3D ( 'NONE', #674, #843, #629 ) ;
#624 = DIRECTION ( 'NONE',  ( -0.000000000000000000, -1.000000000000000000, -0.000000000000000000 ) ) ;
#625 = EDGE_LOOP ( 'NONE', ( #388, #463, #316, #157 ) ) ;
#626 = DIRECTION ( 'NONE',  ( -0.000000000000000000, -0.000000000000000000, -1.000000000000000000 ) ) ;
#627 = AXIS2_PLACEMENT_3D ( 'NONE', #145, #220, #224 ) ;
#628 = DIRECTION ( 'NONE',  ( -0.000000000000000000, -1.000000000000000000, -0.000000000000000000 ) ) ;
#629 = DIRECTION ( 'NONE',  ( 1.000000000000000000, 0.000000000000000000, 0.000000000000000000 ) ) ;
#630 = ORIENTED_EDGE ( 'NONE', *, *, #126, .T. ) ;
#631 = CYLINDRICAL_SURFACE ( 'NONE', #250, 1.000000000000000000 ) ;
#632 = FACE_OUTER_BOUND ( 'NONE', #884, .T. ) ;
#633 = ORIENTED_EDGE ( 'NONE', *, *, #30, .F. ) ;
#634 = CARTESIAN_POINT ( 'NONE',  ( -2.000000000000000000, 2.573773703229684144E-16, -1.399999999999999911 ) ) ;
#635 = PLANE ( 'NONE',  #264 ) ;
#636 = CIRCLE ( 'NONE', #627, 1.000000000000000000 ) ;
#637 = ORIENTED_EDGE ( 'NONE', *, *, #619, .T. ) ;
#638 = FILL_AREA_STYLE ('',( #830 ) ) ;
#639 = DIRECTION ( 'NONE',  ( 1.000000000000000000, 1.445602896647338917E-16, -6.977057820378716556E-15 ) ) ;
#640 = EDGE_CURVE ( 'NONE', #353, #93, #322, .T. ) ;
#641 = ORIENTED_EDGE ( 'NONE', *, *, #587, .F. ) ;
#642 = CARTESIAN_POINT ( 'NONE',  ( 2.500000000000000444, -2.369999999999999662, 5.955354054813082776 ) ) ;
#643 = AXIS2_PLACEMENT_3D ( 'NONE', #301, #287, #850 ) ;
#644 = CARTESIAN_POINT ( 'NONE',  ( 3.500000000000003109, -2.370000000000010765, 8.955354054813135178 ) ) ;
#645 = ORIENTED_EDGE ( 'NONE', *, *, #13, .T. ) ;
#646 = CARTESIAN_POINT ( 'NONE',  ( 2.168411403578903229E-16, -1.370000000000000329, -1.399999999999999911 ) ) ;
#647 = DIRECTION ( 'NONE',  ( -1.000000000000000000, -1.445602896647339163E-16, 0.000000000000000000 ) ) ;
#648 = ADVANCED_FACE ( 'NONE', ( #614 ), #889, .T. ) ;
#649 = ORIENTED_EDGE ( 'NONE', *, *, #683, .T. ) ;
#650 = CIRCLE ( 'NONE', #64, 0.9999999999999997780 ) ;
#651 = CARTESIAN_POINT ( 'NONE',  ( -1.000000000000000222, -3.369999999999999662, -1.399999999999999911 ) ) ;
#652 = DIRECTION ( 'NONE',  ( 1.000000000000000000, 0.000000000000000000, 0.000000000000000000 ) ) ;
#653 = ORIENTED_EDGE ( 'NONE', *, *, #176, .T. ) ;
#654 = ADVANCED_FACE ( 'NONE', ( #470 ), #752, .F. ) ;
#655 = ORIENTED_EDGE ( 'NONE', *, *, #95, .T. ) ;
#656 = CARTESIAN_POINT ( 'NONE',  ( 2.168411403578903229E-16, -1.370000000000000329, -1.399999999999999911 ) ) ;
#657 = DIRECTION ( 'NONE',  ( 0.000000000000000000, 0.000000000000000000, 1.000000000000000000 ) ) ;
#658 = ORIENTED_EDGE ( 'NONE', *, *, #572, .T. ) ;
#659 = LINE ( 'NONE', #246, #173 ) ;
#660 = ORIENTED_EDGE ( 'NONE', *, *, #126, .F. ) ;
#661 = DIRECTION ( 'NONE',  ( 0.000000000000000000, 0.000000000000000000, 1.000000000000000000 ) ) ;
#662 = CARTESIAN_POINT ( 'NONE',  ( -1.000000000000000222, -2.369999999999999662, 4.455354054813082776 ) ) ;
#663 = EDGE_LOOP ( 'NONE', ( #671, #765, #584, #658 ) ) ;
#664 = DIRECTION ( 'NONE',  ( 1.000000000000000000, -0.000000000000000000, -6.977057820378718134E-15 ) ) ;
#665 = VERTEX_POINT ( 'NONE', #766 ) ;
#666 = PLANE ( 'NONE',  #73 ) ;
#667 = AXIS2_PLACEMENT_3D ( 'NONE', #281, #809, #409 ) ;
#668 = CYLINDRICAL_SURFACE ( 'NONE', #35, 0.9999999999999991118 ) ;
#669 = EDGE_CURVE ( 'NONE', #866, #285, #549, .T. ) ;
#670 = CIRCLE ( 'NONE', #738, 1.000000000000000000 ) ;
#671 = ORIENTED_EDGE ( 'NONE', *, *, #170, .T. ) ;
#672 = SPHERICAL_SURFACE ( 'NONE', #715, 1.000000000000000000 ) ;
#673 = CARTESIAN_POINT ( 'NONE',  ( 2.500000000000000444, -3.369999999999999662, -1.399999999999999911 ) ) ;
#674 = CARTESIAN_POINT ( 'NONE',  ( -0.9999999999999997780, 1.129999999999999005, 3.455354054813208453 ) ) ;
#675 = ORIENTED_EDGE ( 'NONE', *, *, #114, .F. ) ;
#676 = FACE_OUTER_BOUND ( 'NONE', #144, .T. ) ;
#677 = APPLICATION_CONTEXT ( 'automotive_design' ) ;
#678 = LINE ( 'NONE', #133, #564 ) ;
#679 = ORIENTED_EDGE ( 'NONE', *, *, #841, .F. ) ;
#680 = CARTESIAN_POINT ( 'NONE',  ( 2.499999999999999556, 2.129999999999999005, 3.455354054813184472 ) ) ;
#681 = CARTESIAN_POINT ( 'NONE',  ( -1.000000000000000222, -2.369999999999999662, 7.955354054813167153 ) ) ;
#682 = EDGE_LOOP ( 'NONE', ( #829, #394, #490, #424 ) ) ;
#683 = EDGE_CURVE ( 'NONE', #457, #93, #702, .T. ) ;
#684 = CARTESIAN_POINT ( 'NONE',  ( -2.000000000000000444, -1.369999999999999662, 4.455354054813082776 ) ) ;
#685 = CIRCLE ( 'NONE', #406, 1.000000000000000000 ) ;
#686 = LINE ( 'NONE', #402, #520 ) ;
#687 = VERTEX_POINT ( 'NONE', #760 ) ;
#688 = LINE ( 'NONE', #342, #867 ) ;
#689 = LINE ( 'NONE', #336, #178 ) ;
#690 = ORIENTED_EDGE ( 'NONE', *, *, #69, .F. ) ;
#691 = DIRECTION ( 'NONE',  ( -0.000000000000000000, 0.000000000000000000, 1.000000000000000000 ) ) ;
#692 = EDGE_CURVE ( 'NONE', #791, #717, #790, .T. ) ;
#693 = CIRCLE ( 'NONE', #721, 1.000000000000000000 ) ;
#694 = VECTOR ( 'NONE', #754, 1000.000000000000000 ) ;
#695 = ADVANCED_FACE ( 'NONE', ( #357 ), #631, .T. ) ;
#696 = EDGE_CURVE ( 'NONE', #687, #879, #636, .T. ) ;
#697 = VERTEX_POINT ( 'NONE', #286 ) ;
#698 =( NAMED_UNIT ( * ) PLANE_ANGLE_UNIT ( ) SI_UNIT ( $, .RADIAN. ) );
#699 = AXIS2_PLACEMENT_3D ( 'NONE', #289, #414, #87 ) ;
#700 = CARTESIAN_POINT ( 'NONE',  ( -2.000000000000000000, 2.573773703229684144E-16, -1.399999999999999911 ) ) ;
#701 = ORIENTED_EDGE ( 'NONE', *, *, #692, .T. ) ;
#702 = LINE ( 'NONE', #849, #777 ) ;
#703 = DIRECTION ( 'NONE',  ( -6.977057820378718134E-15, 1.066958341385370019E-14, -1.000000000000000000 ) ) ;
#704 = EDGE_CURVE ( 'NONE', #562, #755, #81, .T. ) ;
#705 = ORIENTED_EDGE ( 'NONE', *, *, #711, .T. ) ;
#706 = DIRECTION ( 'NONE',  ( -1.880790961315657490E-29, -1.000000000000000000, -1.084202172485503330E-14 ) ) ;
#707 = DIRECTION ( 'NONE',  ( 1.000000000000000000, 0.000000000000000000, -6.977057820378718134E-15 ) ) ;
#708 = AXIS2_PLACEMENT_3D ( 'NONE', #76, #622, #818 ) ;
#709 = ORIENTED_EDGE ( 'NONE', *, *, #321, .T. ) ;
#710 = DIRECTION ( 'NONE',  ( 0.000000000000000000, 0.000000000000000000, -1.000000000000000000 ) ) ;
#711 = EDGE_CURVE ( 'NONE', #851, #280, #238, .T. ) ;
#712 = DIRECTION ( 'NONE',  ( -1.000000000000000000, 0.000000000000000000, 6.977057820378718134E-15 ) ) ;
#713 = ORIENTED_EDGE ( 'NONE', *, *, #796, .T. ) ;
#714 =( NAMED_UNIT ( * ) PLANE_ANGLE_UNIT ( ) SI_UNIT ( $, .RADIAN. ) );
#715 = AXIS2_PLACEMENT_3D ( 'NONE', #196, #533, #137 ) ;
#716 = PLANE ( 'NONE',  #181 ) ;
#717 = VERTEX_POINT ( 'NONE', #12 ) ;
#718 = LINE ( 'NONE', #371, #514 ) ;
#719 = FACE_OUTER_BOUND ( 'NONE', #838, .T. ) ;
#720 = EDGE_LOOP ( 'NONE', ( #799, #376, #266, #247 ) ) ;
#721 = AXIS2_PLACEMENT_3D ( 'NONE', #19, #703, #360 ) ;
#722 = CARTESIAN_POINT ( 'NONE',  ( -0.000000000000000000, -3.369999999999999662, -1.399999999999999911 ) ) ;
#723 = ORIENTED_EDGE ( 'NONE', *, *, #696, .F. ) ;
#724 = CARTESIAN_POINT ( 'NONE',  ( -0.9999999999999997780, 2.129999999999999005, 3.455354054813215559 ) ) ;
#725 = EDGE_LOOP ( 'NONE', ( #251, #128, #860, #183 ) ) ;
#726 = DIRECTION ( 'NONE',  ( 1.286886851614841826E-16, 1.000000000000000000, 1.066958341385369862E-14 ) ) ;
#727 = VERTEX_POINT ( 'NONE', #354 ) ;
#728 = CARTESIAN_POINT ( 'NONE',  ( 2.499999999999999556, 1.129999999999999005, 7.955354054813181364 ) ) ;
#729 = DIRECTION ( 'NONE',  ( 1.000000000000000000, 7.885106708985487801E-17, 0.000000000000000000 ) ) ;
#730 = ORIENTED_EDGE ( 'NONE', *, *, #711, .F. ) ;
#731 = EDGE_CURVE ( 'NONE', #285, #188, #40, .T. ) ;
#732 = CARTESIAN_POINT ( 'NONE',  ( 3.500000000000000000, 2.439472286069592599E-16, -1.399999999999999911 ) ) ;
#733 = CARTESIAN_POINT ( 'NONE',  ( -1.000000000000000222, -2.369999999999999662, 7.955354054813167153 ) ) ;
#734 = ORIENTED_EDGE ( 'NONE', *, *, #814, .F. ) ;
#735 = VECTOR ( 'NONE', #34, 1000.000000000000000 ) ;
#736 = DIRECTION ( 'NONE',  ( -1.445602896647339163E-16, 1.000000000000000000, 0.000000000000000000 ) ) ;
#737 = CARTESIAN_POINT ( 'NONE',  ( -1.000000000000000222, -3.369999999999999662, 7.955354054813167153 ) ) ;
#738 = AXIS2_PLACEMENT_3D ( 'NONE', #154, #691, #481 ) ;
#739 = LINE ( 'NONE', #744, #694 ) ;
#740 = EDGE_LOOP ( 'NONE', ( #374, #523, #759, #552, #701, #581 ) ) ;
#741 = CARTESIAN_POINT ( 'NONE',  ( -1.000000000000000222, -2.369999999999999662, -1.399999999999999911 ) ) ;
#742 = CARTESIAN_POINT ( 'NONE',  ( -2.000000000000000444, -1.369999999999999662, 5.955354054813082776 ) ) ;
#743 = EDGE_CURVE ( 'NONE', #755, #275, #670, .T. ) ;
#744 = CARTESIAN_POINT ( 'NONE',  ( -2.000000000000000444, -3.369999999999999662, 4.455354054813082776 ) ) ;
#745 = ORIENTED_EDGE ( 'NONE', *, *, #85, .T. ) ;
#746 = LINE ( 'NONE', #813, #822 ) ;
#747 = EDGE_CURVE ( 'NONE', #3, #697, #17, .T. ) ;
#748 = LINE ( 'NONE', #412, #404 ) ;
#749 = PRODUCT_CONTEXT ( 'NONE', #842, 'mechanical' ) ;
#750 = AXIS2_PLACEMENT_3D ( 'NONE', #331, #389, #816 ) ;
#751 = ORIENTED_EDGE ( 'NONE', *, *, #69, .T. ) ;
#752 = PLANE ( 'NONE',  #279 ) ;
#753 = VECTOR ( 'NONE', #756, 1000.000000000000000 ) ;
#754 = DIRECTION ( 'NONE',  ( 1.000000000000000000, 0.000000000000000000, 0.000000000000000000 ) ) ;
#755 = VERTEX_POINT ( 'NONE', #27 ) ;
#756 = DIRECTION ( 'NONE',  ( 0.000000000000000000, -0.000000000000000000, -1.000000000000000000 ) ) ;
#757 = FACE_OUTER_BOUND ( 'NONE', #480, .T. ) ;
#758 = EDGE_CURVE ( 'NONE', #164, #803, #300, .T. ) ;
#759 = ORIENTED_EDGE ( 'NONE', *, *, #214, .F. ) ;
#760 = CARTESIAN_POINT ( 'NONE',  ( 3.500000000000000444, -2.369999999999999218, -1.399999999999999911 ) ) ;
#761 = ORIENTED_EDGE ( 'NONE', *, *, #795, .F. ) ;
#762 = CARTESIAN_POINT ( 'NONE',  ( -2.000000000000000444, -1.369999999999999662, 5.955354054813082776 ) ) ;
#763 = MANIFOLD_SOLID_BREP ( 'Cut-Extrude1', #253 ) ;
#764 = DIRECTION ( 'NONE',  ( -0.000000000000000000, 0.000000000000000000, 1.000000000000000000 ) ) ;
#765 = ORIENTED_EDGE ( 'NONE', *, *, #571, .T. ) ;
#766 = CARTESIAN_POINT ( 'NONE',  ( 2.168404344971008868E-16, -1.370000000000000329, 3.455354054813172038 ) ) ;
#767 = FACE_OUTER_BOUND ( 'NONE', #242, .T. ) ;
#768 = EDGE_LOOP ( 'NONE', ( #89, #874, #112, #546, #295, #597, #356, #271, #557, #417 ) ) ;
#769 = CARTESIAN_POINT ( 'NONE',  ( -2.000000000000000000, 8.673617379884035472E-16, -1.399999999999999911 ) ) ;
#770 = FACE_OUTER_BOUND ( 'NONE', #812, .T. ) ;
#771 = CARTESIAN_POINT ( 'NONE',  ( 5.201643631182668779E-14, 2.129999999999999005, 3.455354054813208453 ) ) ;
#772 = EDGE_CURVE ( 'NONE', #3, #348, #491, .T. ) ;
#773 = VERTEX_POINT ( 'NONE', #324 ) ;
#774 = DIRECTION ( 'NONE',  ( 0.000000000000000000, 0.000000000000000000, 1.000000000000000000 ) ) ;
#775 = CYLINDRICAL_SURFACE ( 'NONE', #373, 1.000000000000000000 ) ;
#776 = AXIS2_PLACEMENT_3D ( 'NONE', #6, #265, #143 ) ;
#777 = VECTOR ( 'NONE', #147, 1000.000000000000000 ) ;
#778 = ORIENTED_EDGE ( 'NONE', *, *, #841, .T. ) ;
#779 = DIRECTION ( 'NONE',  ( 7.885106708985487801E-17, -1.000000000000000000, 0.000000000000000000 ) ) ;
#780 = CARTESIAN_POINT ( 'NONE',  ( 0.000000000000000000, 0.000000000000000000, -1.399999999999999911 ) ) ;
#781 = VECTOR ( 'NONE', #446, 1000.000000000000000 ) ;
#782 = ORIENTED_EDGE ( 'NONE', *, *, #58, .F. ) ;
#783 = CARTESIAN_POINT ( 'NONE',  ( 3.500000000000000444, -2.369999999999999662, 5.955354054813082776 ) ) ;
#784 = PLANE ( 'NONE',  #434 ) ;
#785 = ORIENTED_EDGE ( 'NONE', *, *, #619, .F. ) ;
#786 = DIRECTION ( 'NONE',  ( 0.000000000000000000, 0.000000000000000000, 1.000000000000000000 ) ) ;
#787 = ORIENTED_EDGE ( 'NONE', *, *, #814, .T. ) ;
#788 = LINE ( 'NONE', #190, #98 ) ;
#789 = EDGE_LOOP ( 'NONE', ( #327, #637, #408, #26 ) ) ;
#790 = CIRCLE ( 'NONE', #20, 1.000000000000000000 ) ;
#791 = VERTEX_POINT ( 'NONE', #783 ) ;
#792 = DIRECTION ( 'NONE',  ( 0.000000000000000000, 0.000000000000000000, 1.000000000000000000 ) ) ;
#793 = VECTOR ( 'NONE', #330, 1000.000000000000000 ) ;
#794 = DIRECTION ( 'NONE',  ( 0.000000000000000000, 0.000000000000000000, 1.000000000000000000 ) ) ;
#795 = EDGE_CURVE ( 'NONE', #8, #285, #45, .T. ) ;
#796 = EDGE_CURVE ( 'NONE', #803, #290, #38, .T. ) ;
#797 = VERTEX_POINT ( 'NONE', #858 ) ;
#798 = LINE ( 'NONE', #241, #390 ) ;
#799 = ORIENTED_EDGE ( 'NONE', *, *, #865, .T. ) ;
#800 = LINE ( 'NONE', #386, #876 ) ;
#801 = AXIS2_PLACEMENT_3D ( 'NONE', #618, #547, #276 ) ;
#802 = LINE ( 'NONE', #742, #535 ) ;
#803 = VERTEX_POINT ( 'NONE', #118 ) ;
#804 = PLANE ( 'NONE',  #25 ) ;
#805 = LINE ( 'NONE', #57, #148 ) ;
#806 = LINE ( 'NONE', #620, #36 ) ;
#807 = VECTOR ( 'NONE', #88, 1000.000000000000000 ) ;
#808 = AXIS2_PLACEMENT_3D ( 'NONE', #68, #206, #473 ) ;
#809 = DIRECTION ( 'NONE',  ( 2.168404344971009115E-16, 1.000000000000000000, 1.062518129035795292E-14 ) ) ;
#810 =( GEOMETRIC_REPRESENTATION_CONTEXT ( 3 ) GLOBAL_UNCERTAINTY_ASSIGNED_CONTEXT ( ( #384 ) ) GLOBAL_UNIT_ASSIGNED_CONTEXT ( ( #158, #698, #563 ) ) REPRESENTATION_CONTEXT ( 'NONE', 'WORKASPACE' ) );
#811 = DIRECTION ( 'NONE',  ( 1.286886851614841826E-16, 1.000000000000000000, 1.066958341385369862E-14 ) ) ;
#812 = EDGE_LOOP ( 'NONE', ( #86, #438, #478, #709, #641, #653, #435, #378, #223, #469 ) ) ;
#813 = CARTESIAN_POINT ( 'NONE',  ( -0.9999999999999997780, 2.129999999999999005, 3.455354054813208453 ) ) ;
#814 = EDGE_CURVE ( 'NONE', #93, #687, #798, .T. ) ;
#815 = FACE_OUTER_BOUND ( 'NONE', #682, .T. ) ;
#816 = DIRECTION ( 'NONE',  ( 1.000000000000000000, 0.000000000000000000, 0.000000000000000000 ) ) ;
#817 = ORIENTED_EDGE ( 'NONE', *, *, #29, .F. ) ;
#818 = DIRECTION ( 'NONE',  ( -2.168404344971008868E-16, -1.000000000000000000, 0.000000000000000000 ) ) ;
#819 = CYLINDRICAL_SURFACE ( 'NONE', #500, 1.000000000000000888 ) ;
#820 = EDGE_LOOP ( 'NONE', ( #817, #649, #787, #107, #350, #341, #136, #827, #589, #440 ) ) ;
#821 = DIRECTION ( 'NONE',  ( -6.977057820378718134E-15, 1.066958341385370019E-14, -1.000000000000000000 ) ) ;
#822 = VECTOR ( 'NONE', #476, 1000.000000000000000 ) ;
#823 = EDGE_CURVE ( 'NONE', #594, #348, #510, .T. ) ;
#824 = CARTESIAN_POINT ( 'NONE',  ( 1.500000000000000000, 2.723340269153363261E-16, 3.455354054813175591 ) ) ;
#825 = EDGE_CURVE ( 'NONE', #499, #665, #516, .T. ) ;
#826 = EDGE_CURVE ( 'NONE', #285, #280, #317, .T. ) ;
#827 = ORIENTED_EDGE ( 'NONE', *, *, #30, .T. ) ;
#828 = CARTESIAN_POINT ( 'NONE',  ( -1.000000000000000222, -2.369999999999999662, 5.955354054813082776 ) ) ;
#829 = ORIENTED_EDGE ( 'NONE', *, *, #602, .F. ) ;
#830 = FILL_AREA_STYLE_COLOUR ( '', #856 ) ;
#831 = CARTESIAN_POINT ( 'NONE',  ( 5.201643631182668779E-14, 2.129999999999999005, 3.455354054813208453 ) ) ;
#832 = ORIENTED_EDGE ( 'NONE', *, *, #513, .F. ) ;
#833 = VECTOR ( 'NONE', #383, 1000.000000000000000 ) ;
#834 = SURFACE_SIDE_STYLE ('',( #291 ) ) ;
#835 = CARTESIAN_POINT ( 'NONE',  ( -2.000000000000000444, -2.369999999999999662, 4.455354054813082776 ) ) ;
#836 = EDGE_CURVE ( 'NONE', #727, #61, #868, .T. ) ;
#837 = AXIS2_PLACEMENT_3D ( 'NONE', #392, #268, #657 ) ;
#838 = EDGE_LOOP ( 'NONE', ( #151, #832, #171, #679 ) ) ;
#839 = DIRECTION ( 'NONE',  ( -6.938893903907228378E-15, 0.000000000000000000, -1.000000000000000000 ) ) ;
#840 = CARTESIAN_POINT ( 'NONE',  ( 2.500000000000000444, -2.369999999999999662, -1.399999999999999911 ) ) ;
#841 = EDGE_CURVE ( 'NONE', #717, #755, #718, .T. ) ;
#842 = APPLICATION_CONTEXT ( 'automotive_design' ) ;
#843 = DIRECTION ( 'NONE',  ( 0.000000000000000000, 0.000000000000000000, 1.000000000000000000 ) ) ;
#844 = VECTOR ( 'NONE', #875, 1000.000000000000000 ) ;
#845 = ORIENTED_EDGE ( 'NONE', *, *, #836, .T. ) ;
#846 = DIRECTION ( 'NONE',  ( 0.000000000000000000, 0.000000000000000000, -1.000000000000000000 ) ) ;
#847 = PRODUCT ( 'Part8^Lucky15', 'Part8^Lucky15', '', ( #749 ) ) ;
#848 = VERTEX_POINT ( 'NONE', #732 ) ;
#849 = CARTESIAN_POINT ( 'NONE',  ( 3.500000000000000444, -1.369999999999999662, 4.455354054813082776 ) ) ;
#850 = DIRECTION ( 'NONE',  ( 0.000000000000000000, 1.066958341385370650E-14, -1.000000000000000000 ) ) ;
#851 = VERTEX_POINT ( 'NONE', #379 ) ;
#852 = CARTESIAN_POINT ( 'NONE',  ( -0.9999999999999933387, -2.370000000000010765, 8.955354054813167153 ) ) ;
#853 = EDGE_CURVE ( 'NONE', #851, #153, #659, .T. ) ;
#854 = EDGE_CURVE ( 'NONE', #879, #41, #582, .T. ) ;
#855 = DIRECTION ( 'NONE',  ( 1.582776894139422440E-16, -1.000000000000000000, 0.000000000000000000 ) ) ;
#856 = COLOUR_RGB ( '',0.7921568627450980005, 0.8196078431372548767, 0.9333333333333333481 ) ;
#857 = CARTESIAN_POINT ( 'NONE',  ( -2.000000000000000000, 8.673617379884035472E-16, -1.399999999999999911 ) ) ;
#858 = CARTESIAN_POINT ( 'NONE',  ( 3.500000000000000000, 2.439472286069592599E-16, 3.455354054813153830 ) ) ;
#859 = DIRECTION ( 'NONE',  ( 2.573773703229684637E-16, -1.000000000000000000, 0.000000000000000000 ) ) ;
#860 = ORIENTED_EDGE ( 'NONE', *, *, #432, .F. ) ;
#861 = APPLICATION_PROTOCOL_DEFINITION ( 'draft international standard', 'automotive_design', 1998, #842 ) ;
#862 = CARTESIAN_POINT ( 'NONE',  ( 3.500000000000000444, -1.369999999999999662, 4.455354054813082776 ) ) ;
#863 = EDGE_CURVE ( 'NONE', #188, #773, #375, .T. ) ;
#864 = PLANE ( 'NONE',  #335 ) ;
#865 = EDGE_CURVE ( 'NONE', #575, #594, #590, .T. ) ;
#866 = VERTEX_POINT ( 'NONE', #852 ) ;
#867 = VECTOR ( 'NONE', #479, 1000.000000000000000 ) ;
#868 = LINE ( 'NONE', #439, #560 ) ;
#869 = CARTESIAN_POINT ( 'NONE',  ( 3.500000000000000444, -1.369999999999999662, 5.955354054813082776 ) ) ;
#870 = CARTESIAN_POINT ( 'NONE',  ( 1.500000000000000000, 2.463428393587524428E-21, -1.399999999999999911 ) ) ;
#871 = ADVANCED_FACE ( 'NONE', ( #309 ), #873, .F. ) ;
#872 = ORIENTED_EDGE ( 'NONE', *, *, #72, .T. ) ;
#873 = PLANE ( 'NONE',  #263 ) ;
#874 = ORIENTED_EDGE ( 'NONE', *, *, #283, .T. ) ;
#875 = DIRECTION ( 'NONE',  ( 1.582776894139422440E-16, -1.000000000000000000, 0.000000000000000000 ) ) ;
#876 = VECTOR ( 'NONE', #329, 1000.000000000000000 ) ;
#877 = FACE_OUTER_BOUND ( 'NONE', #485, .T. ) ;
#878 = EDGE_LOOP ( 'NONE', ( #617, #475, #675, #603 ) ) ;
#879 = VERTEX_POINT ( 'NONE', #585 ) ;
#880 = DIRECTION ( 'NONE',  ( 6.938893903907222067E-15, 3.187554387107380512E-14, 1.000000000000000000 ) ) ;
#881 = DIRECTION ( 'NONE',  ( 1.000000000000000000, 7.885106708985487801E-17, 0.000000000000000000 ) ) ;
#882 = LINE ( 'NONE', #138, #793 ) ;
#883 = VECTOR ( 'NONE', #639, 1000.000000000000000 ) ;
#884 = EDGE_LOOP ( 'NONE', ( #751, #633, #745, #385 ) ) ;
#885 = CARTESIAN_POINT ( 'NONE',  ( -0.9999999999999997780, 1.129999999999999005, 7.955354054813203568 ) ) ;
#886 = PLANE ( 'NONE',  #837 ) ;
#887 = LINE ( 'NONE', #462, #461 ) ;
#888 = ORIENTED_EDGE ( 'NONE', *, *, #854, .T. ) ;
#889 = PLANE ( 'NONE',  #471 ) ;
#890 = DIRECTION ( 'NONE',  ( 1.000000000000000000, 0.000000000000000000, 0.000000000000000000 ) ) ;
#891 = ORIENTED_EDGE ( 'NONE', *, *, #97, .T. ) ;
ENDSEC;
END-ISO-10303-21;
