ISO-10303-21;
HEADER;
FILE_DESCRIPTION (( 'STEP AP214' ),
    '1' );
FILE_NAME ('spookynob.STEP',
    '2026-08-24T04:25:10',
    ( '' ),
    ( '' ),
    'SwSTEP 2.0',
    'SolidWorks 2026',
    '' );
FILE_SCHEMA (( 'AUTOMOTIVE_DESIGN' ));
ENDSEC;

DATA;
#1 = VERTEX_POINT ( 'NONE', #501 ) ;
#2 = AXIS2_PLACEMENT_3D ( 'NONE', #412, #306, #623 ) ;
#3 = AXIS2_PLACEMENT_3D ( 'NONE', #679, #50, #148 ) ;
#4 = ORIENTED_EDGE ( 'NONE', *, *, #18, .F. ) ;
#5 = AXIS2_PLACEMENT_3D ( 'NONE', #374, #107, #315 ) ;
#6 = CIRCLE ( 'NONE', #271, 6.000000000000000000 ) ;
#7 = ORIENTED_EDGE ( 'NONE', *, *, #531, .T. ) ;
#8 = EDGE_CURVE ( 'NONE', #638, #649, #540, .T. ) ;
#9 = DIRECTION ( 'NONE',  ( 0.000000000000000000, 0.000000000000000000, 1.000000000000000000 ) ) ;
#10 = ORIENTED_EDGE ( 'NONE', *, *, #266, .T. ) ;
#11 = AXIS2_PLACEMENT_3D ( 'NONE', #344, #494, #348 ) ;
#12 = EDGE_CURVE ( 'NONE', #458, #91, #273, .T. ) ;
#13 = CYLINDRICAL_SURFACE ( 'NONE', #325, 3.049999999999999822 ) ;
#14 = DIRECTION ( 'NONE',  ( -0.000000000000000000, -1.000000000000000000, -0.000000000000000000 ) ) ;
#15 = CYLINDRICAL_SURFACE ( 'NONE', #576, 3.500000000000000000 ) ;
#16 = ORIENTED_EDGE ( 'NONE', *, *, #337, .F. ) ;
#17 = DIRECTION ( 'NONE',  ( -0.000000000000000000, -1.000000000000000000, -0.000000000000000000 ) ) ;
#18 = EDGE_CURVE ( 'NONE', #355, #591, #561, .T. ) ;
#19 = LINE ( 'NONE', #230, #343 ) ;
#20 = CYLINDRICAL_SURFACE ( 'NONE', #568, 9.000000000000000000 ) ;
#21 = ORIENTED_EDGE ( 'NONE', *, *, #18, .T. ) ;
#22 = CARTESIAN_POINT ( 'NONE',  ( 0.000000000000000000, 11.00000000000000000, 0.000000000000000000 ) ) ;
#23 = DIRECTION ( 'NONE',  ( -0.000000000000000000, -1.000000000000000000, -0.000000000000000000 ) ) ;
#24 = CARTESIAN_POINT ( 'NONE',  ( 0.000000000000000000, 7.000000000000000000, 4.500000000000000888 ) ) ;
#25 = CIRCLE ( 'NONE', #592, 9.000000000000000000 ) ;
#26 = ORIENTED_EDGE ( 'NONE', *, *, #212, .F. ) ;
#27 = VECTOR ( 'NONE', #240, 1000.000000000000000 ) ;
#28 = CARTESIAN_POINT ( 'NONE',  ( 7.347880794884119736E-16, 6.000000000000000888, -6.000000000000000000 ) ) ;
#29 = CARTESIAN_POINT ( 'NONE',  ( 8.572527594031473190E-16, -1.999999999999999112, -7.000000000000000000 ) ) ;
#30 = DIRECTION ( 'NONE',  ( 1.000000000000000000, 0.000000000000000000, -0.000000000000000000 ) ) ;
#31 = EDGE_LOOP ( 'NONE', ( #376, #507, #80, #319 ) ) ;
#32 = ORIENTED_EDGE ( 'NONE', *, *, #8, .T. ) ;
#33 = CARTESIAN_POINT ( 'NONE',  ( 0.000000000000000000, 0.000000000000000000, 0.000000000000000000 ) ) ;
#34 = DIRECTION ( 'NONE',  ( 0.000000000000000000, 0.000000000000000000, 1.000000000000000000 ) ) ;
#35 = ORIENTED_EDGE ( 'NONE', *, *, #44, .T. ) ;
#36 = ADVANCED_FACE ( 'NONE', ( #308 ), #410, .T. ) ;
#37 = CIRCLE ( 'NONE', #515, 8.000000000000000000 ) ;
#38 = DIRECTION ( 'NONE',  ( 0.000000000000000000, -1.000000000000000000, 0.000000000000000000 ) ) ;
#39 = PRESENTATION_LAYER_ASSIGNMENT (  '', '', ( #98 ) ) ;
#40 = VERTEX_POINT ( 'NONE', #293 ) ;
#41 = PRODUCT_RELATED_PRODUCT_CATEGORY ( 'part', '', ( #64 ) ) ;
#42 = DIRECTION ( 'NONE',  ( 0.000000000000000000, 0.000000000000000000, 1.000000000000000000 ) ) ;
#43 = FILL_AREA_STYLE_COLOUR ( '', #388 ) ;
#44 = EDGE_CURVE ( 'NONE', #46, #395, #147, .T. ) ;
#45 = CARTESIAN_POINT ( 'NONE',  ( 0.000000000000000000, 0.000000000000000000, -0.3999999999999999667 ) ) ;
#46 = VERTEX_POINT ( 'NONE', #661 ) ;
#47 = CARTESIAN_POINT ( 'NONE',  ( 1.040949779275250140E-15, 11.00000000000000000, -8.000000000000000000 ) ) ;
#48 = DIRECTION ( 'NONE',  ( 0.000000000000000000, 0.000000000000000000, 1.000000000000000000 ) ) ;
#49 = ORIENTED_EDGE ( 'NONE', *, *, #175, .F. ) ;
#50 = DIRECTION ( 'NONE',  ( -0.000000000000000000, -1.000000000000000000, -0.000000000000000000 ) ) ;
#51 = FACE_OUTER_BOUND ( 'NONE', #228, .T. ) ;
#52 = ORIENTED_EDGE ( 'NONE', *, *, #185, .T. ) ;
#53 = CARTESIAN_POINT ( 'NONE',  ( 0.000000000000000000, -0.9999999999999991118, 0.000000000000000000 ) ) ;
#54 = VERTEX_POINT ( 'NONE', #614 ) ;
#55 = TOROIDAL_SURFACE ( 'NONE', #177, 4.500000000000000888, 1.000000000000000000 ) ;
#56 = MECHANICAL_DESIGN_GEOMETRIC_PRESENTATION_REPRESENTATION (  '', ( #98 ), #635 ) ;
#57 = EDGE_CURVE ( 'NONE', #639, #1, #363, .T. ) ;
#58 = EDGE_LOOP ( 'NONE', ( #283, #4, #603 ) ) ;
#59 = AXIS2_PLACEMENT_3D ( 'NONE', #578, #630, #260 ) ;
#60 = AXIS2_PLACEMENT_3D ( 'NONE', #274, #486, #221 ) ;
#61 = AXIS2_PLACEMENT_3D ( 'NONE', #138, #202, #669 ) ;
#62 = FACE_OUTER_BOUND ( 'NONE', #31, .T. ) ;
#63 = VERTEX_POINT ( 'NONE', #497 ) ;
#64 = PRODUCT ( 'spookynob', 'spookynob', '', ( #440 ) ) ;
#65 = DIRECTION ( 'NONE',  ( 0.000000000000000000, 1.000000000000000000, -0.000000000000000000 ) ) ;
#66 = AXIS2_PLACEMENT_3D ( 'NONE', #667, #509, #305 ) ;
#67 = CARTESIAN_POINT ( 'NONE',  ( 7.960204194457795477E-16, 7.000000000000000000, -6.000000000000000000 ) ) ;
#68 = FACE_OUTER_BOUND ( 'NONE', #478, .T. ) ;
#69 = APPLICATION_PROTOCOL_DEFINITION ( 'draft international standard', 'automotive_design', 1998, #416 ) ;
#70 = ORIENTED_EDGE ( 'NONE', *, *, #647, .T. ) ;
#71 = DIRECTION ( 'NONE',  ( -1.000000000000000000, 0.000000000000000000, 0.000000000000000000 ) ) ;
#72 = CYLINDRICAL_SURFACE ( 'NONE', #436, 7.000000000000000000 ) ;
#73 = DIRECTION ( 'NONE',  ( -0.000000000000000000, -1.000000000000000000, -0.000000000000000000 ) ) ;
#74 = EDGE_LOOP ( 'NONE', ( #375, #454 ) ) ;
#75 = PLANE ( 'NONE',  #423 ) ;
#76 = LINE ( 'NONE', #144, #471 ) ;
#77 = DIRECTION ( 'NONE',  ( 0.000000000000000000, 0.000000000000000000, 1.000000000000000000 ) ) ;
#78 = DIRECTION ( 'NONE',  ( 0.000000000000000000, 0.000000000000000000, 1.000000000000000000 ) ) ;
#79 = CIRCLE ( 'NONE', #526, 3.049999999999999822 ) ;
#80 = ORIENTED_EDGE ( 'NONE', *, *, #330, .T. ) ;
#81 = EDGE_LOOP ( 'NONE', ( #500, #438, #199, #541 ) ) ;
#82 = DIRECTION ( 'NONE',  ( -0.000000000000000000, -1.000000000000000000, -0.000000000000000000 ) ) ;
#83 = ADVANCED_FACE ( 'NONE', ( #180 ), #13, .F. ) ;
#84 = DIRECTION ( 'NONE',  ( 0.000000000000000000, 0.000000000000000000, 1.000000000000000000 ) ) ;
#85 = VERTEX_POINT ( 'NONE', #339 ) ;
#86 = ORIENTED_EDGE ( 'NONE', *, *, #641, .T. ) ;
#87 = DIRECTION ( 'NONE',  ( 0.000000000000000000, 0.000000000000000000, 1.000000000000000000 ) ) ;
#88 = CARTESIAN_POINT ( 'NONE',  ( 0.000000000000000000, 6.000000000000000000, 0.000000000000000000 ) ) ;
#89 = ADVANCED_FACE ( 'NONE', ( #68 ), #489, .F. ) ;
#90 = ORIENTED_EDGE ( 'NONE', *, *, #334, .F. ) ;
#91 = VERTEX_POINT ( 'NONE', #439 ) ;
#92 = DIRECTION ( 'NONE',  ( 0.000000000000000000, 0.000000000000000000, 1.000000000000000000 ) ) ;
#93 = LINE ( 'NONE', #672, #125 ) ;
#94 = ADVANCED_FACE ( 'NONE', ( #174 ), #281, .T. ) ;
#95 = CARTESIAN_POINT ( 'NONE',  ( 0.000000000000000000, 7.000000000000000000, -0.3999999999999999667 ) ) ;
#96 = AXIS2_PLACEMENT_3D ( 'NONE', #349, #141, #42 ) ;
#97 = DIRECTION ( 'NONE',  ( 0.000000000000000000, 0.000000000000000000, 1.000000000000000000 ) ) ;
#98 = STYLED_ITEM ( 'NONE', ( #424 ), #368 ) ;
#99 = LINE ( 'NONE', #462, #650 ) ;
#100 = CIRCLE ( 'NONE', #481, 3.049999999999999822 ) ;
#101 = EDGE_CURVE ( 'NONE', #432, #649, #6, .T. ) ;
#102 = AXIS2_PLACEMENT_3D ( 'NONE', #657, #396, #609 ) ;
#103 = CARTESIAN_POINT ( 'NONE',  ( 0.000000000000000000, 6.000000000000000888, 0.000000000000000000 ) ) ;
#104 = LINE ( 'NONE', #361, #207 ) ;
#105 = ORIENTED_EDGE ( 'NONE', *, *, #224, .F. ) ;
#106 = DIRECTION ( 'NONE',  ( 0.000000000000000000, 0.000000000000000000, 1.000000000000000000 ) ) ;
#107 = DIRECTION ( 'NONE',  ( 0.000000000000000000, 1.000000000000000000, 0.000000000000000000 ) ) ;
#108 = ORIENTED_EDGE ( 'NONE', *, *, #485, .T. ) ;
#109 = CIRCLE ( 'NONE', #652, 1.000000000000000888 ) ;
#110 = SURFACE_STYLE_FILL_AREA ( #253 ) ;
#111 = CARTESIAN_POINT ( 'NONE',  ( 0.000000000000000000, 7.000000000000000000, -3.049999999999999822 ) ) ;
#112 = ADVANCED_FACE ( 'NONE', ( #284 ), #15, .T. ) ;
#113 = ORIENTED_EDGE ( 'NONE', *, *, #418, .T. ) ;
#114 = ADVANCED_FACE ( 'NONE', ( #123, #331, #601 ), #75, .F. ) ;
#115 = ORIENTED_EDGE ( 'NONE', *, *, #302, .T. ) ;
#116 = ORIENTED_EDGE ( 'NONE', *, *, #654, .F. ) ;
#117 = EDGE_CURVE ( 'NONE', #346, #85, #646, .T. ) ;
#118 = ORIENTED_EDGE ( 'NONE', *, *, #477, .F. ) ;
#119 = AXIS2_PLACEMENT_3D ( 'NONE', #474, #527, #632 ) ;
#120 = AXIS2_PLACEMENT_3D ( 'NONE', #229, #443, #187 ) ;
#121 = DIRECTION ( 'NONE',  ( 0.000000000000000000, 0.000000000000000000, -1.000000000000000000 ) ) ;
#122 = ORIENTED_EDGE ( 'NONE', *, *, #168, .T. ) ;
#123 = FACE_BOUND ( 'NONE', #537, .T. ) ;
#124 = DIRECTION ( 'NONE',  ( 0.000000000000000000, 0.000000000000000000, -1.000000000000000000 ) ) ;
#125 = VECTOR ( 'NONE', #14, 1000.000000000000000 ) ;
#126 = AXIS2_PLACEMENT_3D ( 'NONE', #203, #415, #625 ) ;
#127 = FACE_OUTER_BOUND ( 'NONE', #223, .T. ) ;
#128 = EDGE_LOOP ( 'NONE', ( #378, #453, #457, #70 ) ) ;
#129 = CARTESIAN_POINT ( 'NONE',  ( 0.000000000000000000, 0.000000000000000000, 0.000000000000000000 ) ) ;
#130 = FACE_OUTER_BOUND ( 'NONE', #338, .T. ) ;
#131 = FACE_OUTER_BOUND ( 'NONE', #58, .T. ) ;
#132 = ORIENTED_EDGE ( 'NONE', *, *, #266, .F. ) ;
#133 = CARTESIAN_POINT ( 'NONE',  ( 0.000000000000000000, 7.000000000000000000, 0.000000000000000000 ) ) ;
#134 = DIRECTION ( 'NONE',  ( 0.000000000000000000, 1.000000000000000000, -0.000000000000000000 ) ) ;
#135 = CARTESIAN_POINT ( 'NONE',  ( 8.572527594031473190E-16, 6.000000000000000888, -7.000000000000000000 ) ) ;
#136 = CIRCLE ( 'NONE', #377, 7.000000000000000000 ) ;
#137 = ORIENTED_EDGE ( 'NONE', *, *, #464, .F. ) ;
#138 = CARTESIAN_POINT ( 'NONE',  ( 0.000000000000000000, -1.999999999999999112, 0.000000000000000000 ) ) ;
#139 = DIRECTION ( 'NONE',  ( -0.000000000000000000, 1.000000000000000000, -0.000000000000000000 ) ) ;
#140 = EDGE_CURVE ( 'NONE', #46, #216, #297, .T. ) ;
#141 = DIRECTION ( 'NONE',  ( -0.000000000000000000, 1.000000000000000000, -0.000000000000000000 ) ) ;
#142 = EDGE_LOOP ( 'NONE', ( #406, #492 ) ) ;
#143 = DIRECTION ( 'NONE',  ( 1.000000000000000000, -0.000000000000000000, 1.224646799147353207E-16 ) ) ;
#144 = CARTESIAN_POINT ( 'NONE',  ( 0.000000000000000000, 7.000000000000000000, -3.500000000000000000 ) ) ;
#145 = DIRECTION ( 'NONE',  ( -1.000000000000000000, 0.000000000000000000, -0.000000000000000000 ) ) ;
#146 = ADVANCED_BREP_SHAPE_REPRESENTATION ( 'spookynob', ( #368, #322 ), #624 ) ;
#147 = LINE ( 'NONE', #191, #27 ) ;
#148 = DIRECTION ( 'NONE',  ( 0.000000000000000000, 0.000000000000000000, -1.000000000000000000 ) ) ;
#149 = CARTESIAN_POINT ( 'NONE',  ( 0.000000000000000000, 7.000000000000000000, 0.000000000000000000 ) ) ;
#150 = ADVANCED_FACE ( 'NONE', ( #493, #127 ), #335, .F. ) ;
#151 = CIRCLE ( 'NONE', #430, 3.049999999999999822 ) ;
#152 = CARTESIAN_POINT ( 'NONE',  ( 0.000000000000000000, -0.9999999999999991118, 0.000000000000000000 ) ) ;
#153 = AXIS2_PLACEMENT_3D ( 'NONE', #312, #317, #106 ) ;
#154 = DIRECTION ( 'NONE',  ( -0.000000000000000000, -1.000000000000000000, -0.000000000000000000 ) ) ;
#155 = AXIS2_PLACEMENT_3D ( 'NONE', #582, #213, #626 ) ;
#156 = AXIS2_PLACEMENT_3D ( 'NONE', #171, #594, #121 ) ;
#157 = CARTESIAN_POINT ( 'NONE',  ( 1.102182119232617714E-15, 11.00000000000000000, 9.000000000000000000 ) ) ;
#158 = FACE_OUTER_BOUND ( 'NONE', #252, .T. ) ;
#159 = ADVANCED_FACE ( 'NONE', ( #651 ), #680, .T. ) ;
#160 = CARTESIAN_POINT ( 'NONE',  ( -3.023656726548170415, 7.000000000000000000, -0.3999999999999999667 ) ) ;
#161 = EDGE_LOOP ( 'NONE', ( #347, #298, #518, #116 ) ) ;
#162 = CIRCLE ( 'NONE', #332, 3.049999999999999822 ) ;
#163 = DIRECTION ( 'NONE',  ( 0.000000000000000000, 0.000000000000000000, -1.000000000000000000 ) ) ;
#164 = ADVANCED_FACE ( 'NONE', ( #288 ), #184, .T. ) ;
#165 = ORIENTED_EDGE ( 'NONE', *, *, #219, .F. ) ;
#166 = ADVANCED_FACE ( 'NONE', ( #62 ), #449, .T. ) ;
#167 = ORIENTED_EDGE ( 'NONE', *, *, #599, .F. ) ;
#168 = EDGE_CURVE ( 'NONE', #264, #287, #581, .T. ) ;
#169 = CIRCLE ( 'NONE', #316, 1.000000000000000888 ) ;
#170 = ORIENTED_EDGE ( 'NONE', *, *, #227, .T. ) ;
#171 = CARTESIAN_POINT ( 'NONE',  ( 0.000000000000000000, -0.9999999999999991118, 0.000000000000000000 ) ) ;
#172 = ORIENTED_EDGE ( 'NONE', *, *, #140, .T. ) ;
#173 = DIRECTION ( 'NONE',  ( -1.000000000000000000, 0.000000000000000000, 0.000000000000000000 ) ) ;
#174 = FACE_OUTER_BOUND ( 'NONE', #304, .T. ) ;
#175 = EDGE_CURVE ( 'NONE', #367, #196, #665, .T. ) ;
#176 = CARTESIAN_POINT ( 'NONE',  ( 0.000000000000000000, 7.000000000000000000, 0.4000000000000001887 ) ) ;
#177 = AXIS2_PLACEMENT_3D ( 'NONE', #88, #505, #341 ) ;
#178 = CIRCLE ( 'NONE', #573, 9.000000000000000000 ) ;
#179 = ORIENTED_EDGE ( 'NONE', *, *, #401, .F. ) ;
#180 = FACE_OUTER_BOUND ( 'NONE', #81, .T. ) ;
#181 = DIRECTION ( 'NONE',  ( 0.000000000000000000, -0.000000000000000000, 1.000000000000000000 ) ) ;
#182 = AXIS2_PLACEMENT_3D ( 'NONE', #318, #154, #48 ) ;
#183 = CARTESIAN_POINT ( 'NONE',  ( 0.000000000000000000, 0.000000000000000000, 0.000000000000000000 ) ) ;
#184 = TOROIDAL_SURFACE ( 'NONE', #60, 8.000000000000000000, 1.000000000000000000 ) ;
#185 = EDGE_CURVE ( 'NONE', #40, #496, #371, .T. ) ;
#186 = ORIENTED_EDGE ( 'NONE', *, *, #185, .F. ) ;
#187 = DIRECTION ( 'NONE',  ( 0.000000000000000000, -0.000000000000000000, 1.000000000000000000 ) ) ;
#188 = CARTESIAN_POINT ( 'NONE',  ( 9.797174393178825657E-16, 9.999999999999998224, -8.000000000000000000 ) ) ;
#189 = PLANE ( 'NONE',  #2 ) ;
#190 = ORIENTED_EDGE ( 'NONE', *, *, #534, .F. ) ;
#191 = CARTESIAN_POINT ( 'NONE',  ( 0.000000000000000000, -1.999999999999999112, 7.000000000000000000 ) ) ;
#192 = LINE ( 'NONE', #622, #278 ) ;
#193 = DIRECTION ( 'NONE',  ( 0.000000000000000000, 0.000000000000000000, 1.000000000000000000 ) ) ;
#194 = AXIS2_PLACEMENT_3D ( 'NONE', #300, #134, #92 ) ;
#195 = ORIENTED_EDGE ( 'NONE', *, *, #212, .T. ) ;
#196 = VERTEX_POINT ( 'NONE', #200 ) ;
#197 = DIRECTION ( 'NONE',  ( 0.000000000000000000, -1.000000000000000000, 0.000000000000000000 ) ) ;
#198 = DIRECTION ( 'NONE',  ( 0.000000000000000000, -0.000000000000000000, 1.000000000000000000 ) ) ;
#199 = ORIENTED_EDGE ( 'NONE', *, *, #428, .T. ) ;
#200 = CARTESIAN_POINT ( 'NONE',  ( 4.286263797015736595E-16, 6.000000000000000000, 3.500000000000000000 ) ) ;
#201 = CARTESIAN_POINT ( 'NONE',  ( 0.000000000000000000, 7.000000000000000000, 0.000000000000000000 ) ) ;
#202 = DIRECTION ( 'NONE',  ( 0.000000000000000000, -1.000000000000000000, 0.000000000000000000 ) ) ;
#203 = CARTESIAN_POINT ( 'NONE',  ( 9.797174393178825657E-16, -0.9999999999999991118, 8.000000000000000000 ) ) ;
#204 = FACE_OUTER_BOUND ( 'NONE', #467, .T. ) ;
#205 = DIRECTION ( 'NONE',  ( 0.000000000000000000, 0.000000000000000000, -1.000000000000000000 ) ) ;
#206 = CARTESIAN_POINT ( 'NONE',  ( 0.000000000000000000, 0.000000000000000000, -3.500000000000000000 ) ) ;
#207 = VECTOR ( 'NONE', #429, 1000.000000000000000 ) ;
#208 = AXIS2_PLACEMENT_3D ( 'NONE', #133, #225, #542 ) ;
#209 = SURFACE_SIDE_STYLE ('',( #110 ) ) ;
#210 = FACE_OUTER_BOUND ( 'NONE', #584, .T. ) ;
#211 = ORIENTED_EDGE ( 'NONE', *, *, #587, .T. ) ;
#212 = EDGE_CURVE ( 'NONE', #591, #272, #192, .T. ) ;
#213 = DIRECTION ( 'NONE',  ( 0.000000000000000000, 1.000000000000000000, 0.000000000000000000 ) ) ;
#214 = CIRCLE ( 'NONE', #267, 4.500000000000000888 ) ;
#215 = EDGE_CURVE ( 'NONE', #442, #351, #257, .T. ) ;
#216 = VERTEX_POINT ( 'NONE', #29 ) ;
#217 = CIRCLE ( 'NONE', #628, 7.000000000000000000 ) ;
#218 = ORIENTED_EDGE ( 'NONE', *, *, #219, .T. ) ;
#219 = EDGE_CURVE ( 'NONE', #216, #46, #136, .T. ) ;
#220 = ORIENTED_EDGE ( 'NONE', *, *, #477, .T. ) ;
#221 = DIRECTION ( 'NONE',  ( 0.000000000000000000, 0.000000000000000000, 1.000000000000000000 ) ) ;
#222 = AXIS2_PLACEMENT_3D ( 'NONE', #498, #610, #181 ) ;
#223 = EDGE_LOOP ( 'NONE', ( #243, #220 ) ) ;
#224 = EDGE_CURVE ( 'NONE', #248, #588, #79, .T. ) ;
#225 = DIRECTION ( 'NONE',  ( -0.000000000000000000, -1.000000000000000000, -0.000000000000000000 ) ) ;
#226 = DIRECTION ( 'NONE',  ( -0.000000000000000000, -1.000000000000000000, -0.000000000000000000 ) ) ;
#227 = EDGE_CURVE ( 'NONE', #367, #496, #76, .T. ) ;
#228 = EDGE_LOOP ( 'NONE', ( #400, #633, #132, #372 ) ) ;
#229 = CARTESIAN_POINT ( 'NONE',  ( 0.000000000000000000, 7.000000000000000000, 0.000000000000000000 ) ) ;
#230 = CARTESIAN_POINT ( 'NONE',  ( 0.000000000000000000, 7.000000000000000000, -3.049999999999999822 ) ) ;
#231 = CIRCLE ( 'NONE', #153, 3.500000000000000000 ) ;
#232 = ORIENTED_EDGE ( 'NONE', *, *, #237, .F. ) ;
#233 = CARTESIAN_POINT ( 'NONE',  ( 0.000000000000000000, 7.000000000000000000, 0.000000000000000000 ) ) ;
#234 = DIRECTION ( 'NONE',  ( 1.224646799147351482E-16, 0.000000000000000000, -1.000000000000000000 ) ) ;
#235 = CIRCLE ( 'NONE', #119, 6.000000000000000000 ) ;
#236 = DIRECTION ( 'NONE',  ( 0.000000000000000000, 0.000000000000000000, 1.000000000000000000 ) ) ;
#237 = EDGE_CURVE ( 'NONE', #326, #442, #169, .T. ) ;
#238 = VECTOR ( 'NONE', #71, 1000.000000000000000 ) ;
#239 = ORIENTED_EDGE ( 'NONE', *, *, #12, .T. ) ;
#240 = DIRECTION ( 'NONE',  ( -0.000000000000000000, 1.000000000000000000, -0.000000000000000000 ) ) ;
#241 = DIRECTION ( 'NONE',  ( 0.000000000000000000, 0.000000000000000000, -1.000000000000000000 ) ) ;
#242 = CARTESIAN_POINT ( 'NONE',  ( 3.023656726548170415, 7.000000000000000000, -0.3999999999999999667 ) ) ;
#243 = ORIENTED_EDGE ( 'NONE', *, *, #101, .T. ) ;
#244 = ORIENTED_EDGE ( 'NONE', *, *, #641, .F. ) ;
#245 = DIRECTION ( 'NONE',  ( -0.000000000000000000, -1.000000000000000000, -0.000000000000000000 ) ) ;
#246 = FACE_OUTER_BOUND ( 'NONE', #585, .T. ) ;
#247 = CIRCLE ( 'NONE', #479, 1.000000000000000000 ) ;
#248 = VERTEX_POINT ( 'NONE', #465 ) ;
#249 = CIRCLE ( 'NONE', #359, 1.000000000000000000 ) ;
#250 = DIRECTION ( 'NONE',  ( -1.000000000000000000, 0.000000000000000000, 0.000000000000000000 ) ) ;
#251 = CARTESIAN_POINT ( 'NONE',  ( 3.023656726548170415, 7.000000000000000000, 0.4000000000000001887 ) ) ;
#252 = EDGE_LOOP ( 'NONE', ( #636, #32, #342, #244 ) ) ;
#253 = FILL_AREA_STYLE ('',( #43 ) ) ;
#254 = CARTESIAN_POINT ( 'NONE',  ( 0.000000000000000000, 7.000000000000000000, 0.000000000000000000 ) ) ;
#255 = DIRECTION ( 'NONE',  ( 1.000000000000000000, -0.000000000000000000, 1.224646799147353207E-16 ) ) ;
#256 = DIRECTION ( 'NONE',  ( 0.000000000000000000, 0.000000000000000000, 1.000000000000000000 ) ) ;
#257 = CIRCLE ( 'NONE', #66, 8.000000000000000000 ) ;
#258 = ORIENTED_EDGE ( 'NONE', *, *, #175, .T. ) ;
#259 = CARTESIAN_POINT ( 'NONE',  ( 0.000000000000000000, 6.000000000000000888, 0.000000000000000000 ) ) ;
#260 = DIRECTION ( 'NONE',  ( 0.000000000000000000, -0.000000000000000000, 1.000000000000000000 ) ) ;
#261 = EDGE_LOOP ( 'NONE', ( #427, #165 ) ) ;
#262 = ADVANCED_FACE ( 'NONE', ( #130, #566 ), #514, .T. ) ;
#263 = DIRECTION ( 'NONE',  ( 0.000000000000000000, -1.000000000000000000, 0.000000000000000000 ) ) ;
#264 = VERTEX_POINT ( 'NONE', #411 ) ;
#265 = CARTESIAN_POINT ( 'NONE',  ( 0.000000000000000000, 0.000000000000000000, -3.049999999999999822 ) ) ;
#266 = EDGE_CURVE ( 'NONE', #91, #458, #556, .T. ) ;
#267 = AXIS2_PLACEMENT_3D ( 'NONE', #254, #674, #611 ) ;
#268 = ORIENTED_EDGE ( 'NONE', *, *, #44, .F. ) ;
#269 = AXIS2_PLACEMENT_3D ( 'NONE', #529, #255, #524 ) ;
#270 = AXIS2_PLACEMENT_3D ( 'NONE', #53, #263, #163 ) ;
#271 = AXIS2_PLACEMENT_3D ( 'NONE', #233, #17, #447 ) ;
#272 = VERTEX_POINT ( 'NONE', #336 ) ;
#273 = CIRCLE ( 'NONE', #61, 8.000000000000000000 ) ;
#274 = CARTESIAN_POINT ( 'NONE',  ( 0.000000000000000000, 9.999999999999998224, 0.000000000000000000 ) ) ;
#275 = ORIENTED_EDGE ( 'NONE', *, *, #334, .T. ) ;
#276 = ADVANCED_FACE ( 'NONE', ( #550 ), #72, .F. ) ;
#277 = CARTESIAN_POINT ( 'NONE',  ( 0.000000000000000000, -1.999999999999999112, 0.000000000000000000 ) ) ;
#278 = VECTOR ( 'NONE', #245, 1000.000000000000000 ) ;
#279 =( LENGTH_UNIT ( ) NAMED_UNIT ( * ) SI_UNIT ( .MILLI., .METRE. ) );
#280 = EDGE_CURVE ( 'NONE', #480, #446, #19, .T. ) ;
#281 = CYLINDRICAL_SURFACE ( 'NONE', #593, 9.000000000000000000 ) ;
#282 = CARTESIAN_POINT ( 'NONE',  ( 0.000000000000000000, 0.000000000000000000, 0.4000000000000001887 ) ) ;
#283 = ORIENTED_EDGE ( 'NONE', *, *, #531, .F. ) ;
#284 = FACE_OUTER_BOUND ( 'NONE', #373, .T. ) ;
#285 = ADVANCED_FACE ( 'NONE', ( #653 ), #562, .F. ) ;
#286 = CARTESIAN_POINT ( 'NONE',  ( 0.000000000000000000, -1.999999999999999112, 0.000000000000000000 ) ) ;
#287 = VERTEX_POINT ( 'NONE', #558 ) ;
#288 = FACE_OUTER_BOUND ( 'NONE', #523, .T. ) ;
#289 = EDGE_CURVE ( 'NONE', #54, #264, #340, .T. ) ;
#290 = DIRECTION ( 'NONE',  ( 0.000000000000000000, 0.000000000000000000, 1.000000000000000000 ) ) ;
#291 = CARTESIAN_POINT ( 'NONE',  ( 3.023656726548170415, 0.000000000000000000, 0.4000000000000001887 ) ) ;
#292 = ORIENTED_EDGE ( 'NONE', *, *, #401, .T. ) ;
#293 = CARTESIAN_POINT ( 'NONE',  ( 4.286263797015736595E-16, 0.000000000000000000, 3.500000000000000000 ) ) ;
#294 = CARTESIAN_POINT ( 'NONE',  ( 0.000000000000000000, 9.999999999999998224, 8.000000000000000000 ) ) ;
#295 = AXIS2_PLACEMENT_3D ( 'NONE', #616, #520, #663 ) ;
#296 = DIRECTION ( 'NONE',  ( 0.000000000000000000, 1.000000000000000000, -0.000000000000000000 ) ) ;
#297 = CIRCLE ( 'NONE', #539, 7.000000000000000000 ) ;
#298 = ORIENTED_EDGE ( 'NONE', *, *, #506, .F. ) ;
#299 = ORIENTED_EDGE ( 'NONE', *, *, #459, .F. ) ;
#300 = CARTESIAN_POINT ( 'NONE',  ( 0.000000000000000000, 0.000000000000000000, 0.000000000000000000 ) ) ;
#301 = LINE ( 'NONE', #251, #461 ) ;
#302 = EDGE_CURVE ( 'NONE', #54, #351, #109, .T. ) ;
#303 = EDGE_LOOP ( 'NONE', ( #172, #350, #618, #268 ) ) ;
#304 = EDGE_LOOP ( 'NONE', ( #113, #292, #548, #590 ) ) ;
#305 = DIRECTION ( 'NONE',  ( 0.000000000000000000, 0.000000000000000000, 1.000000000000000000 ) ) ;
#306 = DIRECTION ( 'NONE',  ( 0.000000000000000000, 1.000000000000000000, 0.000000000000000000 ) ) ;
#307 = VECTOR ( 'NONE', #173, 1000.000000000000000 ) ;
#308 = FACE_OUTER_BOUND ( 'NONE', #612, .T. ) ;
#309 = AXIS2_PLACEMENT_3D ( 'NONE', #259, #580, #97 ) ;
#310 = CARTESIAN_POINT ( 'NONE',  ( 0.000000000000000000, 6.000000000000000000, 0.000000000000000000 ) ) ;
#311 = TOROIDAL_SURFACE ( 'NONE', #295, 6.000000000000000000, 1.000000000000000000 ) ;
#312 = CARTESIAN_POINT ( 'NONE',  ( 0.000000000000000000, 0.000000000000000000, 0.000000000000000000 ) ) ;
#313 = LINE ( 'NONE', #45, #324 ) ;
#314 = FACE_OUTER_BOUND ( 'NONE', #656, .T. ) ;
#315 = DIRECTION ( 'NONE',  ( 0.000000000000000000, 0.000000000000000000, 1.000000000000000000 ) ) ;
#316 = AXIS2_PLACEMENT_3D ( 'NONE', #294, #250, #460 ) ;
#317 = DIRECTION ( 'NONE',  ( 0.000000000000000000, 1.000000000000000000, -0.000000000000000000 ) ) ;
#318 = CARTESIAN_POINT ( 'NONE',  ( 0.000000000000000000, 9.999999999999998224, 0.000000000000000000 ) ) ;
#319 = ORIENTED_EDGE ( 'NONE', *, *, #12, .F. ) ;
#320 = DIRECTION ( 'NONE',  ( 0.000000000000000000, 1.000000000000000000, 0.000000000000000000 ) ) ;
#321 = ORIENTED_EDGE ( 'NONE', *, *, #528, .T. ) ;
#322 = AXIS2_PLACEMENT_3D ( 'NONE', #183, #78, #490 ) ;
#323 = ORIENTED_EDGE ( 'NONE', *, *, #280, .T. ) ;
#324 = VECTOR ( 'NONE', #677, 1000.000000000000000 ) ;
#325 = AXIS2_PLACEMENT_3D ( 'NONE', #327, #644, #491 ) ;
#326 = VERTEX_POINT ( 'NONE', #450 ) ;
#327 = CARTESIAN_POINT ( 'NONE',  ( 0.000000000000000000, 7.000000000000000000, 0.000000000000000000 ) ) ;
#328 = ORIENTED_EDGE ( 'NONE', *, *, #647, .F. ) ;
#329 = SHAPE_DEFINITION_REPRESENTATION ( #383, #146 ) ;
#330 = EDGE_CURVE ( 'NONE', #264, #91, #249, .T. ) ;
#331 = FACE_BOUND ( 'NONE', #551, .T. ) ;
#332 = AXIS2_PLACEMENT_3D ( 'NONE', #469, #499, #456 ) ;
#333 = DIRECTION ( 'NONE',  ( 0.000000000000000000, 0.000000000000000000, 1.000000000000000000 ) ) ;
#334 = EDGE_CURVE ( 'NONE', #1, #367, #602, .T. ) ;
#335 = PLANE ( 'NONE',  #120 ) ;
#336 = CARTESIAN_POINT ( 'NONE',  ( 3.023656726548170415, 0.000000000000000000, -0.3999999999999999667 ) ) ;
#337 = EDGE_CURVE ( 'NONE', #496, #40, #231, .T. ) ;
#338 = EDGE_LOOP ( 'NONE', ( #10, #239 ) ) ;
#339 = CARTESIAN_POINT ( 'NONE',  ( -3.023656726548170415, 7.000000000000000000, 0.4000000000000001887 ) ) ;
#340 = LINE ( 'NONE', #397, #402 ) ;
#341 = DIRECTION ( 'NONE',  ( 0.000000000000000000, 0.000000000000000000, 1.000000000000000000 ) ) ;
#342 = ORIENTED_EDGE ( 'NONE', *, *, #101, .F. ) ;
#343 = VECTOR ( 'NONE', #445, 1000.000000000000000 ) ;
#344 = CARTESIAN_POINT ( 'NONE',  ( 0.000000000000000000, -1.999999999999999112, 0.000000000000000000 ) ) ;
#345 = CARTESIAN_POINT ( 'NONE',  ( 0.000000000000000000, 6.000000000000000000, 4.500000000000000888 ) ) ;
#346 = VERTEX_POINT ( 'NONE', #676 ) ;
#347 = ORIENTED_EDGE ( 'NONE', *, *, #302, .F. ) ;
#348 = DIRECTION ( 'NONE',  ( 0.000000000000000000, -0.000000000000000000, -1.000000000000000000 ) ) ;
#349 = CARTESIAN_POINT ( 'NONE',  ( 0.000000000000000000, -1.999999999999999112, 0.000000000000000000 ) ) ;
#350 = ORIENTED_EDGE ( 'NONE', *, *, #599, .T. ) ;
#351 = VERTEX_POINT ( 'NONE', #47 ) ;
#352 = DIRECTION ( 'NONE',  ( 0.000000000000000000, 1.000000000000000000, -0.000000000000000000 ) ) ;
#353 = CARTESIAN_POINT ( 'NONE',  ( 0.000000000000000000, 7.000000000000000000, -0.3999999999999999667 ) ) ;
#354 = ADVANCED_FACE ( 'NONE', ( #570 ), #627, .F. ) ;
#355 = VERTEX_POINT ( 'NONE', #369 ) ;
#356 =( LENGTH_UNIT ( ) NAMED_UNIT ( * ) SI_UNIT ( .MILLI., .METRE. ) );
#357 = DIRECTION ( 'NONE',  ( 0.000000000000000000, 1.000000000000000000, -0.000000000000000000 ) ) ;
#358 = AXIS2_PLACEMENT_3D ( 'NONE', #149, #296, #84 ) ;
#359 = AXIS2_PLACEMENT_3D ( 'NONE', #455, #662, #87 ) ;
#360 = DIRECTION ( 'NONE',  ( -0.000000000000000000, 1.000000000000000000, -0.000000000000000000 ) ) ;
#361 = CARTESIAN_POINT ( 'NONE',  ( 4.286263797015736595E-16, 7.000000000000000000, 3.500000000000000000 ) ) ;
#362 = AXIS2_PLACEMENT_3D ( 'NONE', #684, #417, #256 ) ;
#363 = CIRCLE ( 'NONE', #503, 4.500000000000000888 ) ;
#364 = ADVANCED_FACE ( 'NONE', ( #314 ), #473, .F. ) ;
#365 = VECTOR ( 'NONE', #508, 1000.000000000000000 ) ;
#366 = UNCERTAINTY_MEASURE_WITH_UNIT (LENGTH_MEASURE( 1.000000000000000082E-05 ), #279, 'distance_accuracy_value', 'NONE');
#367 = VERTEX_POINT ( 'NONE', #521 ) ;
#368 = MANIFOLD_SOLID_BREP ( 'Fillet1', #483 ) ;
#369 = CARTESIAN_POINT ( 'NONE',  ( -3.023656726548170415, 7.000000000000000000, -0.3999999999999999667 ) ) ;
#370 = PLANE ( 'NONE',  #59 ) ;
#371 = CIRCLE ( 'NONE', #194, 3.500000000000000000 ) ;
#372 = ORIENTED_EDGE ( 'NONE', *, *, #330, .F. ) ;
#373 = EDGE_LOOP ( 'NONE', ( #137, #463, #170, #664 ) ) ;
#374 = CARTESIAN_POINT ( 'NONE',  ( 0.000000000000000000, 6.000000000000000000, 0.000000000000000000 ) ) ;
#375 = ORIENTED_EDGE ( 'NONE', *, *, #117, .F. ) ;
#376 = ORIENTED_EDGE ( 'NONE', *, *, #380, .F. ) ;
#377 = AXIS2_PLACEMENT_3D ( 'NONE', #403, #197, #241 ) ;
#378 = ORIENTED_EDGE ( 'NONE', *, *, #671, .F. ) ;
#379 = ORIENTED_EDGE ( 'NONE', *, *, #485, .F. ) ;
#380 = EDGE_CURVE ( 'NONE', #287, #458, #431, .T. ) ;
#381 = FACE_OUTER_BOUND ( 'NONE', #414, .T. ) ;
#382 = DIRECTION ( 'NONE',  ( 0.000000000000000000, 0.000000000000000000, -1.000000000000000000 ) ) ;
#383 = PRODUCT_DEFINITION_SHAPE ( 'NONE', 'NONE',  #413 ) ;
#384 = CARTESIAN_POINT ( 'NONE',  ( 0.000000000000000000, 11.00000000000000000, 0.000000000000000000 ) ) ;
#385 = DIRECTION ( 'NONE',  ( 0.000000000000000000, 0.000000000000000000, -1.000000000000000000 ) ) ;
#386 = AXIS2_PLACEMENT_3D ( 'NONE', #310, #559, #193 ) ;
#387 = EDGE_CURVE ( 'NONE', #287, #264, #178, .T. ) ;
#388 = COLOUR_RGB ( '',0.7921568627450980005, 0.8196078431372548767, 0.9333333333333333481 ) ;
#389 = ORIENTED_EDGE ( 'NONE', *, *, #459, .T. ) ;
#390 = DIRECTION ( 'NONE',  ( 0.000000000000000000, 0.000000000000000000, 1.000000000000000000 ) ) ;
#391 = AXIS2_PLACEMENT_3D ( 'NONE', #345, #563, #236 ) ;
#392 = DIRECTION ( 'NONE',  ( 1.000000000000000000, -0.000000000000000000, 1.224646799147353207E-16 ) ) ;
#393 =( NAMED_UNIT ( * ) PLANE_ANGLE_UNIT ( ) SI_UNIT ( $, .RADIAN. ) );
#394 = AXIS2_PLACEMENT_3D ( 'NONE', #28, #143, #513 ) ;
#395 = VERTEX_POINT ( 'NONE', #575 ) ;
#396 = DIRECTION ( 'NONE',  ( 0.000000000000000000, 1.000000000000000000, 0.000000000000000000 ) ) ;
#397 = CARTESIAN_POINT ( 'NONE',  ( 0.000000000000000000, 11.00000000000000000, -9.000000000000000000 ) ) ;
#398 = DIRECTION ( 'NONE',  ( -0.000000000000000000, 1.000000000000000000, -0.000000000000000000 ) ) ;
#399 = ORIENTED_EDGE ( 'NONE', *, *, #224, .T. ) ;
#400 = ORIENTED_EDGE ( 'NONE', *, *, #387, .F. ) ;
#401 = EDGE_CURVE ( 'NONE', #326, #287, #419, .T. ) ;
#402 = VECTOR ( 'NONE', #23, 1000.000000000000000 ) ;
#403 = CARTESIAN_POINT ( 'NONE',  ( 0.000000000000000000, -1.999999999999999112, 0.000000000000000000 ) ) ;
#404 = CARTESIAN_POINT ( 'NONE',  ( 0.000000000000000000, 6.000000000000000888, 6.000000000000000000 ) ) ;
#405 = ORIENTED_EDGE ( 'NONE', *, *, #418, .F. ) ;
#406 = ORIENTED_EDGE ( 'NONE', *, *, #57, .T. ) ;
#407 = DIRECTION ( 'NONE',  ( 0.000000000000000000, 0.000000000000000000, 1.000000000000000000 ) ) ;
#408 = EDGE_CURVE ( 'NONE', #638, #395, #217, .T. ) ;
#409 = DIRECTION ( 'NONE',  ( 0.000000000000000000, 0.000000000000000000, 1.000000000000000000 ) ) ;
#410 = CYLINDRICAL_SURFACE ( 'NONE', #482, 3.500000000000000000 ) ;
#411 = CARTESIAN_POINT ( 'NONE',  ( 0.000000000000000000, -0.9999999999999991118, -9.000000000000000000 ) ) ;
#412 = CARTESIAN_POINT ( 'NONE',  ( 0.000000000000000000, 7.000000000000000000, 0.000000000000000000 ) ) ;
#413 = PRODUCT_DEFINITION ( 'UNKNOWN', '', #511, #525 ) ;
#414 = EDGE_LOOP ( 'NONE', ( #179, #512, #682, #122 ) ) ;
#415 = DIRECTION ( 'NONE',  ( 1.000000000000000000, 0.000000000000000000, -1.224646799147353207E-16 ) ) ;
#416 = APPLICATION_CONTEXT ( 'automotive_design' ) ;
#417 = DIRECTION ( 'NONE',  ( 0.000000000000000000, 1.000000000000000000, -0.000000000000000000 ) ) ;
#418 = EDGE_CURVE ( 'NONE', #54, #326, #574, .T. ) ;
#419 = LINE ( 'NONE', #157, #517 ) ;
#420 = DIRECTION ( 'NONE',  ( 0.000000000000000000, 0.000000000000000000, 1.000000000000000000 ) ) ;
#421 = CIRCLE ( 'NONE', #155, 7.000000000000000000 ) ;
#422 = EDGE_LOOP ( 'NONE', ( #167, #218, #35, #389 ) ) ;
#423 = AXIS2_PLACEMENT_3D ( 'NONE', #129, #65, #9 ) ;
#424 = PRESENTATION_STYLE_ASSIGNMENT (( #470 ) ) ;
#425 = UNCERTAINTY_MEASURE_WITH_UNIT (LENGTH_MEASURE( 1.000000000000000082E-05 ), #356, 'distance_accuracy_value', 'NONE');
#426 = FACE_OUTER_BOUND ( 'NONE', #484, .T. ) ;
#427 = ORIENTED_EDGE ( 'NONE', *, *, #140, .F. ) ;
#428 = EDGE_CURVE ( 'NONE', #355, #63, #530, .T. ) ;
#429 = DIRECTION ( 'NONE',  ( -0.000000000000000000, -1.000000000000000000, -0.000000000000000000 ) ) ;
#430 = AXIS2_PLACEMENT_3D ( 'NONE', #567, #357, #77 ) ;
#431 = CIRCLE ( 'NONE', #126, 1.000000000000000000 ) ;
#432 = VERTEX_POINT ( 'NONE', #533 ) ;
#433 = ORIENTED_EDGE ( 'NONE', *, *, #215, .F. ) ;
#434 = ADVANCED_FACE ( 'NONE', ( #51 ), #448, .T. ) ;
#435 = ORIENTED_EDGE ( 'NONE', *, *, #671, .T. ) ;
#436 = AXIS2_PLACEMENT_3D ( 'NONE', #286, #139, #290 ) ;
#437 = CARTESIAN_POINT ( 'NONE',  ( 0.000000000000000000, -0.9999999999999991118, 0.000000000000000000 ) ) ;
#438 = ORIENTED_EDGE ( 'NONE', *, *, #583, .T. ) ;
#439 = CARTESIAN_POINT ( 'NONE',  ( 0.000000000000000000, -1.999999999999999112, -8.000000000000000000 ) ) ;
#440 = PRODUCT_CONTEXT ( 'NONE', #416, 'mechanical' ) ;
#441 = DIRECTION ( 'NONE',  ( 0.000000000000000000, 1.000000000000000000, 0.000000000000000000 ) ) ;
#442 = VERTEX_POINT ( 'NONE', #476 ) ;
#443 = DIRECTION ( 'NONE',  ( 0.000000000000000000, 1.000000000000000000, 0.000000000000000000 ) ) ;
#444 = CIRCLE ( 'NONE', #358, 3.049999999999999822 ) ;
#445 = DIRECTION ( 'NONE',  ( -0.000000000000000000, -1.000000000000000000, -0.000000000000000000 ) ) ;
#446 = VERTEX_POINT ( 'NONE', #265 ) ;
#447 = DIRECTION ( 'NONE',  ( 0.000000000000000000, 0.000000000000000000, 1.000000000000000000 ) ) ;
#448 = TOROIDAL_SURFACE ( 'NONE', #270, 8.000000000000000000, 1.000000000000000000 ) ;
#449 = TOROIDAL_SURFACE ( 'NONE', #156, 8.000000000000000000, 1.000000000000000000 ) ;
#450 = CARTESIAN_POINT ( 'NONE',  ( 1.102182119232617714E-15, 9.999999999999998224, 9.000000000000000000 ) ) ;
#451 = DIRECTION ( 'NONE',  ( -1.000000000000000000, 0.000000000000000000, 0.000000000000000000 ) ) ;
#452 = EDGE_CURVE ( 'NONE', #85, #346, #655, .T. ) ;
#453 = ORIENTED_EDGE ( 'NONE', *, *, #596, .F. ) ;
#454 = ORIENTED_EDGE ( 'NONE', *, *, #452, .F. ) ;
#455 = CARTESIAN_POINT ( 'NONE',  ( 0.000000000000000000, -0.9999999999999991118, -8.000000000000000000 ) ) ;
#456 = DIRECTION ( 'NONE',  ( 0.000000000000000000, 0.000000000000000000, 1.000000000000000000 ) ) ;
#457 = ORIENTED_EDGE ( 'NONE', *, *, #117, .T. ) ;
#458 = VERTEX_POINT ( 'NONE', #472 ) ;
#459 = EDGE_CURVE ( 'NONE', #395, #638, #421, .T. ) ;
#460 = DIRECTION ( 'NONE',  ( 0.000000000000000000, 0.000000000000000000, 1.000000000000000000 ) ) ;
#461 = VECTOR ( 'NONE', #510, 1000.000000000000000 ) ;
#462 = CARTESIAN_POINT ( 'NONE',  ( 8.572527594031473190E-16, -1.999999999999999112, -7.000000000000000000 ) ) ;
#463 = ORIENTED_EDGE ( 'NONE', *, *, #534, .T. ) ;
#464 = EDGE_CURVE ( 'NONE', #196, #40, #104, .T. ) ;
#465 = CARTESIAN_POINT ( 'NONE',  ( -3.023656726548170415, 0.000000000000000000, 0.4000000000000001887 ) ) ;
#466 = DIRECTION ( 'NONE',  ( 0.000000000000000000, 1.000000000000000000, -0.000000000000000000 ) ) ;
#467 = EDGE_LOOP ( 'NONE', ( #90, #666, #321, #49 ) ) ;
#468 = ADVANCED_FACE ( 'NONE', ( #210 ), #370, .T. ) ;
#469 = CARTESIAN_POINT ( 'NONE',  ( 0.000000000000000000, 0.000000000000000000, 0.000000000000000000 ) ) ;
#470 = SURFACE_STYLE_USAGE ( .BOTH. , #209 ) ;
#471 = VECTOR ( 'NONE', #619, 1000.000000000000000 ) ;
#472 = CARTESIAN_POINT ( 'NONE',  ( 1.040949779275250140E-15, -1.999999999999999112, 8.000000000000000000 ) ) ;
#473 = CYLINDRICAL_SURFACE ( 'NONE', #3, 3.049999999999999822 ) ;
#474 = CARTESIAN_POINT ( 'NONE',  ( 0.000000000000000000, 7.000000000000000000, 0.000000000000000000 ) ) ;
#475 = ADVANCED_FACE ( 'NONE', ( #426 ), #538, .F. ) ;
#476 = CARTESIAN_POINT ( 'NONE',  ( 0.000000000000000000, 11.00000000000000000, 8.000000000000000000 ) ) ;
#477 = EDGE_CURVE ( 'NONE', #649, #432, #235, .T. ) ;
#478 = EDGE_LOOP ( 'NONE', ( #105, #328, #565, #631 ) ) ;
#479 = AXIS2_PLACEMENT_3D ( 'NONE', #404, #451, #34 ) ;
#480 = VERTEX_POINT ( 'NONE', #111 ) ;
#481 = AXIS2_PLACEMENT_3D ( 'NONE', #201, #466, #409 ) ;
#482 = AXIS2_PLACEMENT_3D ( 'NONE', #621, #673, #557 ) ;
#483 = CLOSED_SHELL ( 'NONE', ( #164, #434, #519, #475, #94, #276, #36, #364, #589, #83, #89, #645, #112, #114, #150, #285, #536, #552, #262, #468, #675, #543, #354, #166, #159 ) ) ;
#484 = EDGE_LOOP ( 'NONE', ( #595, #275, #190, #532 ) ) ;
#485 = EDGE_CURVE ( 'NONE', #63, #272, #313, .T. ) ;
#486 = DIRECTION ( 'NONE',  ( 0.000000000000000000, 1.000000000000000000, 0.000000000000000000 ) ) ;
#487 = ORIENTED_EDGE ( 'NONE', *, *, #215, .T. ) ;
#488 = AXIS2_PLACEMENT_3D ( 'NONE', #437, #605, #504 ) ;
#489 = CYLINDRICAL_SURFACE ( 'NONE', #208, 3.049999999999999822 ) ;
#490 = DIRECTION ( 'NONE',  ( 1.000000000000000000, 0.000000000000000000, 0.000000000000000000 ) ) ;
#491 = DIRECTION ( 'NONE',  ( 0.000000000000000000, 0.000000000000000000, -1.000000000000000000 ) ) ;
#492 = ORIENTED_EDGE ( 'NONE', *, *, #607, .T. ) ;
#493 = FACE_BOUND ( 'NONE', #142, .T. ) ;
#494 = DIRECTION ( 'NONE',  ( 0.000000000000000000, -1.000000000000000000, 0.000000000000000000 ) ) ;
#495 = LINE ( 'NONE', #282, #307 ) ;
#496 = VERTEX_POINT ( 'NONE', #206 ) ;
#497 = CARTESIAN_POINT ( 'NONE',  ( -3.023656726548170415, 0.000000000000000000, -0.3999999999999999667 ) ) ;
#498 = CARTESIAN_POINT ( 'NONE',  ( 0.000000000000000000, 7.000000000000000000, 0.000000000000000000 ) ) ;
#499 = DIRECTION ( 'NONE',  ( 0.000000000000000000, 1.000000000000000000, -0.000000000000000000 ) ) ;
#500 = ORIENTED_EDGE ( 'NONE', *, *, #280, .F. ) ;
#501 = CARTESIAN_POINT ( 'NONE',  ( 5.510910596163088569E-16, 7.000000000000000000, -4.500000000000000888 ) ) ;
#502 = VECTOR ( 'NONE', #522, 1000.000000000000000 ) ;
#503 = AXIS2_PLACEMENT_3D ( 'NONE', #597, #441, #390 ) ;
#504 = DIRECTION ( 'NONE',  ( 0.000000000000000000, 0.000000000000000000, -1.000000000000000000 ) ) ;
#505 = DIRECTION ( 'NONE',  ( 0.000000000000000000, 1.000000000000000000, 0.000000000000000000 ) ) ;
#506 = EDGE_CURVE ( 'NONE', #326, #54, #25, .T. ) ;
#507 = ORIENTED_EDGE ( 'NONE', *, *, #168, .F. ) ;
#508 = DIRECTION ( 'NONE',  ( 1.000000000000000000, -0.000000000000000000, 0.000000000000000000 ) ) ;
#509 = DIRECTION ( 'NONE',  ( 0.000000000000000000, 1.000000000000000000, 0.000000000000000000 ) ) ;
#510 = DIRECTION ( 'NONE',  ( -0.000000000000000000, -1.000000000000000000, -0.000000000000000000 ) ) ;
#511 = PRODUCT_DEFINITION_FORMATION_WITH_SPECIFIED_SOURCE ( 'ANY', '', #64, .NOT_KNOWN. ) ;
#512 = ORIENTED_EDGE ( 'NONE', *, *, #506, .T. ) ;
#513 = DIRECTION ( 'NONE',  ( 1.224646799147353454E-16, 0.000000000000000000, -1.000000000000000000 ) ) ;
#514 = PLANE ( 'NONE',  #11 ) ;
#515 = AXIS2_PLACEMENT_3D ( 'NONE', #648, #544, #333 ) ;
#516 = FACE_OUTER_BOUND ( 'NONE', #422, .T. ) ;
#517 = VECTOR ( 'NONE', #577, 1000.000000000000000 ) ;
#518 = ORIENTED_EDGE ( 'NONE', *, *, #237, .T. ) ;
#519 = ADVANCED_FACE ( 'NONE', ( #158 ), #311, .F. ) ;
#520 = DIRECTION ( 'NONE',  ( 0.000000000000000000, 1.000000000000000000, 0.000000000000000000 ) ) ;
#521 = CARTESIAN_POINT ( 'NONE',  ( 0.000000000000000000, 6.000000000000000000, -3.500000000000000000 ) ) ;
#522 = DIRECTION ( 'NONE',  ( -0.000000000000000000, -1.000000000000000000, -0.000000000000000000 ) ) ;
#523 = EDGE_LOOP ( 'NONE', ( #405, #115, #433, #232 ) ) ;
#524 = DIRECTION ( 'NONE',  ( 1.224646799147353454E-16, 0.000000000000000000, -1.000000000000000000 ) ) ;
#525 = PRODUCT_DEFINITION_CONTEXT ( 'detailed design', #579, 'design' ) ;
#526 = AXIS2_PLACEMENT_3D ( 'NONE', #33, #352, #615 ) ;
#527 = DIRECTION ( 'NONE',  ( -0.000000000000000000, -1.000000000000000000, -0.000000000000000000 ) ) ;
#528 = EDGE_CURVE ( 'NONE', #639, #196, #678, .T. ) ;
#529 = CARTESIAN_POINT ( 'NONE',  ( 5.510910596163089556E-16, 6.000000000000000000, -4.500000000000000888 ) ) ;
#530 = LINE ( 'NONE', #160, #502 ) ;
#531 = EDGE_CURVE ( 'NONE', #591, #480, #100, .T. ) ;
#532 = ORIENTED_EDGE ( 'NONE', *, *, #528, .F. ) ;
#533 = CARTESIAN_POINT ( 'NONE',  ( 0.000000000000000000, 7.000000000000000000, 6.000000000000000000 ) ) ;
#534 = EDGE_CURVE ( 'NONE', #196, #367, #545, .T. ) ;
#535 = EDGE_LOOP ( 'NONE', ( #16, #186 ) ) ;
#536 = ADVANCED_FACE ( 'NONE', ( #131 ), #189, .F. ) ;
#537 = EDGE_LOOP ( 'NONE', ( #211, #564, #108 ) ) ;
#538 = TOROIDAL_SURFACE ( 'NONE', #5, 4.500000000000000888, 1.000000000000000000 ) ;
#539 = AXIS2_PLACEMENT_3D ( 'NONE', #277, #604, #385 ) ;
#540 = CIRCLE ( 'NONE', #394, 1.000000000000000000 ) ;
#541 = ORIENTED_EDGE ( 'NONE', *, *, #637, .F. ) ;
#542 = DIRECTION ( 'NONE',  ( 0.000000000000000000, 0.000000000000000000, -1.000000000000000000 ) ) ;
#543 = ADVANCED_FACE ( 'NONE', ( #204 ), #55, .F. ) ;
#544 = DIRECTION ( 'NONE',  ( 0.000000000000000000, 1.000000000000000000, 0.000000000000000000 ) ) ;
#545 = CIRCLE ( 'NONE', #386, 3.500000000000000000 ) ;
#546 = DIRECTION ( 'NONE',  ( 0.000000000000000000, 0.000000000000000000, -1.000000000000000000 ) ) ;
#547 =( NAMED_UNIT ( * ) SI_UNIT ( $, .STERADIAN. ) SOLID_ANGLE_UNIT ( ) );
#548 = ORIENTED_EDGE ( 'NONE', *, *, #387, .T. ) ;
#549 = CARTESIAN_POINT ( 'NONE',  ( 0.000000000000000000, 7.000000000000000000, 0.000000000000000000 ) ) ;
#550 = FACE_OUTER_BOUND ( 'NONE', #303, .T. ) ;
#551 = EDGE_LOOP ( 'NONE', ( #435, #399 ) ) ;
#552 = ADVANCED_FACE ( 'NONE', ( #516 ), #554, .F. ) ;
#553 = CARTESIAN_POINT ( 'NONE',  ( 0.000000000000000000, 6.000000000000000000, 0.000000000000000000 ) ) ;
#554 = CYLINDRICAL_SURFACE ( 'NONE', #96, 7.000000000000000000 ) ;
#555 = ORIENTED_EDGE ( 'NONE', *, *, #227, .F. ) ;
#556 = CIRCLE ( 'NONE', #640, 8.000000000000000000 ) ;
#557 = DIRECTION ( 'NONE',  ( 0.000000000000000000, 0.000000000000000000, -1.000000000000000000 ) ) ;
#558 = CARTESIAN_POINT ( 'NONE',  ( 1.102182119232617714E-15, -0.9999999999999991118, 9.000000000000000000 ) ) ;
#559 = DIRECTION ( 'NONE',  ( -0.000000000000000000, -1.000000000000000000, -0.000000000000000000 ) ) ;
#560 = ORIENTED_EDGE ( 'NONE', *, *, #587, .F. ) ;
#561 = LINE ( 'NONE', #95, #365 ) ;
#562 = PLANE ( 'NONE',  #222 ) ;
#563 = DIRECTION ( 'NONE',  ( -1.000000000000000000, 0.000000000000000000, 0.000000000000000000 ) ) ;
#564 = ORIENTED_EDGE ( 'NONE', *, *, #637, .T. ) ;
#565 = ORIENTED_EDGE ( 'NONE', *, *, #452, .T. ) ;
#566 = FACE_BOUND ( 'NONE', #261, .T. ) ;
#567 = CARTESIAN_POINT ( 'NONE',  ( 0.000000000000000000, 0.000000000000000000, 0.000000000000000000 ) ) ;
#568 = AXIS2_PLACEMENT_3D ( 'NONE', #384, #73, #124 ) ;
#569 = ORIENTED_EDGE ( 'NONE', *, *, #464, .T. ) ;
#570 = FACE_OUTER_BOUND ( 'NONE', #660, .T. ) ;
#571 = AXIS2_PLACEMENT_3D ( 'NONE', #659, #198, #30 ) ;
#572 = FACE_OUTER_BOUND ( 'NONE', #128, .T. ) ;
#573 = AXIS2_PLACEMENT_3D ( 'NONE', #152, #360, #205 ) ;
#574 = CIRCLE ( 'NONE', #182, 9.000000000000000000 ) ;
#575 = CARTESIAN_POINT ( 'NONE',  ( 0.000000000000000000, 6.000000000000000888, 7.000000000000000000 ) ) ;
#576 = AXIS2_PLACEMENT_3D ( 'NONE', #549, #226, #382 ) ;
#577 = DIRECTION ( 'NONE',  ( -0.000000000000000000, -1.000000000000000000, -0.000000000000000000 ) ) ;
#578 = CARTESIAN_POINT ( 'NONE',  ( 0.000000000000000000, 11.00000000000000000, 0.000000000000000000 ) ) ;
#579 = APPLICATION_CONTEXT ( 'automotive_design' ) ;
#580 = DIRECTION ( 'NONE',  ( 0.000000000000000000, 1.000000000000000000, 0.000000000000000000 ) ) ;
#581 = CIRCLE ( 'NONE', #488, 9.000000000000000000 ) ;
#582 = CARTESIAN_POINT ( 'NONE',  ( 0.000000000000000000, 6.000000000000000888, 0.000000000000000000 ) ) ;
#583 = EDGE_CURVE ( 'NONE', #480, #355, #444, .T. ) ;
#584 = EDGE_LOOP ( 'NONE', ( #487, #643 ) ) ;
#585 = EDGE_LOOP ( 'NONE', ( #379, #608, #21, #195 ) ) ;
#586 = DIRECTION ( 'NONE',  ( -0.000000000000000000, -1.000000000000000000, -0.000000000000000000 ) ) ;
#587 = EDGE_CURVE ( 'NONE', #272, #446, #151, .T. ) ;
#588 = VERTEX_POINT ( 'NONE', #291 ) ;
#589 = ADVANCED_FACE ( 'NONE', ( #572 ), #606, .T. ) ;
#590 = ORIENTED_EDGE ( 'NONE', *, *, #289, .F. ) ;
#591 = VERTEX_POINT ( 'NONE', #242 ) ;
#592 = AXIS2_PLACEMENT_3D ( 'NONE', #634, #586, #420 ) ;
#593 = AXIS2_PLACEMENT_3D ( 'NONE', #22, #642, #546 ) ;
#594 = DIRECTION ( 'NONE',  ( 0.000000000000000000, -1.000000000000000000, 0.000000000000000000 ) ) ;
#595 = ORIENTED_EDGE ( 'NONE', *, *, #607, .F. ) ;
#596 = EDGE_CURVE ( 'NONE', #346, #588, #301, .T. ) ;
#597 = CARTESIAN_POINT ( 'NONE',  ( 0.000000000000000000, 7.000000000000000000, 0.000000000000000000 ) ) ;
#598 = APPLICATION_PROTOCOL_DEFINITION ( 'draft international standard', 'automotive_design', 1998, #579 ) ;
#599 = EDGE_CURVE ( 'NONE', #216, #638, #99, .T. ) ;
#600 = AXIS2_PLACEMENT_3D ( 'NONE', #353, #620, #145 ) ;
#601 = FACE_OUTER_BOUND ( 'NONE', #535, .T. ) ;
#602 = CIRCLE ( 'NONE', #269, 1.000000000000000000 ) ;
#603 = ORIENTED_EDGE ( 'NONE', *, *, #583, .F. ) ;
#604 = DIRECTION ( 'NONE',  ( 0.000000000000000000, -1.000000000000000000, 0.000000000000000000 ) ) ;
#605 = DIRECTION ( 'NONE',  ( -0.000000000000000000, 1.000000000000000000, -0.000000000000000000 ) ) ;
#606 = PLANE ( 'NONE',  #571 ) ;
#607 = EDGE_CURVE ( 'NONE', #1, #639, #214, .T. ) ;
#608 = ORIENTED_EDGE ( 'NONE', *, *, #428, .F. ) ;
#609 = DIRECTION ( 'NONE',  ( 0.000000000000000000, 0.000000000000000000, 1.000000000000000000 ) ) ;
#610 = DIRECTION ( 'NONE',  ( 0.000000000000000000, 1.000000000000000000, 0.000000000000000000 ) ) ;
#611 = DIRECTION ( 'NONE',  ( 0.000000000000000000, 0.000000000000000000, 1.000000000000000000 ) ) ;
#612 = EDGE_LOOP ( 'NONE', ( #258, #569, #52, #555 ) ) ;
#613 = AXIS2_PLACEMENT_3D ( 'NONE', #553, #82, #407 ) ;
#614 = CARTESIAN_POINT ( 'NONE',  ( 0.000000000000000000, 9.999999999999998224, -9.000000000000000000 ) ) ;
#615 = DIRECTION ( 'NONE',  ( 0.000000000000000000, 0.000000000000000000, 1.000000000000000000 ) ) ;
#616 = CARTESIAN_POINT ( 'NONE',  ( 0.000000000000000000, 6.000000000000000888, 0.000000000000000000 ) ) ;
#617 = ORIENTED_EDGE ( 'NONE', *, *, #8, .F. ) ;
#618 = ORIENTED_EDGE ( 'NONE', *, *, #408, .T. ) ;
#619 = DIRECTION ( 'NONE',  ( -0.000000000000000000, -1.000000000000000000, -0.000000000000000000 ) ) ;
#620 = DIRECTION ( 'NONE',  ( 0.000000000000000000, 0.000000000000000000, -1.000000000000000000 ) ) ;
#621 = CARTESIAN_POINT ( 'NONE',  ( 0.000000000000000000, 7.000000000000000000, 0.000000000000000000 ) ) ;
#622 = CARTESIAN_POINT ( 'NONE',  ( 3.023656726548170415, 7.000000000000000000, -0.3999999999999999667 ) ) ;
#623 = DIRECTION ( 'NONE',  ( 0.000000000000000000, -0.000000000000000000, 1.000000000000000000 ) ) ;
#624 =( GEOMETRIC_REPRESENTATION_CONTEXT ( 3 ) GLOBAL_UNCERTAINTY_ASSIGNED_CONTEXT ( ( #366 ) ) GLOBAL_UNIT_ASSIGNED_CONTEXT ( ( #279, #393, #547 ) ) REPRESENTATION_CONTEXT ( 'NONE', 'WORKASPACE' ) );
#625 = DIRECTION ( 'NONE',  ( -1.224646799147353454E-16, 0.000000000000000000, -1.000000000000000000 ) ) ;
#626 = DIRECTION ( 'NONE',  ( 0.000000000000000000, 0.000000000000000000, 1.000000000000000000 ) ) ;
#627 = TOROIDAL_SURFACE ( 'NONE', #309, 6.000000000000000000, 1.000000000000000000 ) ;
#628 = AXIS2_PLACEMENT_3D ( 'NONE', #103, #320, #681 ) ;
#629 =( NAMED_UNIT ( * ) PLANE_ANGLE_UNIT ( ) SI_UNIT ( $, .RADIAN. ) );
#630 = DIRECTION ( 'NONE',  ( 0.000000000000000000, 1.000000000000000000, 0.000000000000000000 ) ) ;
#631 = ORIENTED_EDGE ( 'NONE', *, *, #596, .T. ) ;
#632 = DIRECTION ( 'NONE',  ( 0.000000000000000000, 0.000000000000000000, 1.000000000000000000 ) ) ;
#633 = ORIENTED_EDGE ( 'NONE', *, *, #380, .T. ) ;
#634 = CARTESIAN_POINT ( 'NONE',  ( 0.000000000000000000, 9.999999999999998224, 0.000000000000000000 ) ) ;
#635 =( GEOMETRIC_REPRESENTATION_CONTEXT ( 3 ) GLOBAL_UNCERTAINTY_ASSIGNED_CONTEXT ( ( #425 ) ) GLOBAL_UNIT_ASSIGNED_CONTEXT ( ( #356, #629, #683 ) ) REPRESENTATION_CONTEXT ( 'NONE', 'WORKASPACE' ) );
#636 = ORIENTED_EDGE ( 'NONE', *, *, #408, .F. ) ;
#637 = EDGE_CURVE ( 'NONE', #446, #63, #162, .T. ) ;
#638 = VERTEX_POINT ( 'NONE', #135 ) ;
#639 = VERTEX_POINT ( 'NONE', #24 ) ;
#640 = AXIS2_PLACEMENT_3D ( 'NONE', #658, #38, #670 ) ;
#641 = EDGE_CURVE ( 'NONE', #395, #432, #247, .T. ) ;
#642 = DIRECTION ( 'NONE',  ( -0.000000000000000000, -1.000000000000000000, -0.000000000000000000 ) ) ;
#643 = ORIENTED_EDGE ( 'NONE', *, *, #654, .T. ) ;
#644 = DIRECTION ( 'NONE',  ( -0.000000000000000000, -1.000000000000000000, -0.000000000000000000 ) ) ;
#645 = ADVANCED_FACE ( 'NONE', ( #246 ), #668, .T. ) ;
#646 = LINE ( 'NONE', #176, #238 ) ;
#647 = EDGE_CURVE ( 'NONE', #85, #248, #93, .T. ) ;
#648 = CARTESIAN_POINT ( 'NONE',  ( 0.000000000000000000, 11.00000000000000000, 0.000000000000000000 ) ) ;
#649 = VERTEX_POINT ( 'NONE', #67 ) ;
#650 = VECTOR ( 'NONE', #398, 1000.000000000000000 ) ;
#651 = FACE_OUTER_BOUND ( 'NONE', #161, .T. ) ;
#652 = AXIS2_PLACEMENT_3D ( 'NONE', #188, #392, #234 ) ;
#653 = FACE_OUTER_BOUND ( 'NONE', #74, .T. ) ;
#654 = EDGE_CURVE ( 'NONE', #351, #442, #37, .T. ) ;
#655 = CIRCLE ( 'NONE', #362, 3.049999999999999822 ) ;
#656 = EDGE_LOOP ( 'NONE', ( #7, #323, #560, #26 ) ) ;
#657 = CARTESIAN_POINT ( 'NONE',  ( 0.000000000000000000, 9.999999999999998224, 0.000000000000000000 ) ) ;
#658 = CARTESIAN_POINT ( 'NONE',  ( 0.000000000000000000, -1.999999999999999112, 0.000000000000000000 ) ) ;
#659 = CARTESIAN_POINT ( 'NONE',  ( 0.000000000000000000, 7.000000000000000000, 0.4000000000000001887 ) ) ;
#660 = EDGE_LOOP ( 'NONE', ( #617, #299, #86, #118 ) ) ;
#661 = CARTESIAN_POINT ( 'NONE',  ( 0.000000000000000000, -1.999999999999999112, 7.000000000000000000 ) ) ;
#662 = DIRECTION ( 'NONE',  ( -1.000000000000000000, -0.000000000000000000, -0.000000000000000000 ) ) ;
#663 = DIRECTION ( 'NONE',  ( 0.000000000000000000, 0.000000000000000000, 1.000000000000000000 ) ) ;
#664 = ORIENTED_EDGE ( 'NONE', *, *, #337, .T. ) ;
#665 = CIRCLE ( 'NONE', #613, 3.500000000000000000 ) ;
#666 = ORIENTED_EDGE ( 'NONE', *, *, #57, .F. ) ;
#667 = CARTESIAN_POINT ( 'NONE',  ( 0.000000000000000000, 11.00000000000000000, 0.000000000000000000 ) ) ;
#668 = PLANE ( 'NONE',  #600 ) ;
#669 = DIRECTION ( 'NONE',  ( 0.000000000000000000, 0.000000000000000000, -1.000000000000000000 ) ) ;
#670 = DIRECTION ( 'NONE',  ( 0.000000000000000000, 0.000000000000000000, -1.000000000000000000 ) ) ;
#671 = EDGE_CURVE ( 'NONE', #588, #248, #495, .T. ) ;
#672 = CARTESIAN_POINT ( 'NONE',  ( -3.023656726548170415, 7.000000000000000000, 0.4000000000000001887 ) ) ;
#673 = DIRECTION ( 'NONE',  ( -0.000000000000000000, -1.000000000000000000, -0.000000000000000000 ) ) ;
#674 = DIRECTION ( 'NONE',  ( 0.000000000000000000, 1.000000000000000000, 0.000000000000000000 ) ) ;
#675 = ADVANCED_FACE ( 'NONE', ( #381 ), #20, .T. ) ;
#676 = CARTESIAN_POINT ( 'NONE',  ( 3.023656726548170415, 7.000000000000000000, 0.4000000000000001887 ) ) ;
#677 = DIRECTION ( 'NONE',  ( 1.000000000000000000, -0.000000000000000000, 0.000000000000000000 ) ) ;
#678 = CIRCLE ( 'NONE', #391, 1.000000000000000000 ) ;
#679 = CARTESIAN_POINT ( 'NONE',  ( 0.000000000000000000, 7.000000000000000000, 0.000000000000000000 ) ) ;
#680 = TOROIDAL_SURFACE ( 'NONE', #102, 8.000000000000000000, 1.000000000000000000 ) ;
#681 = DIRECTION ( 'NONE',  ( 0.000000000000000000, 0.000000000000000000, 1.000000000000000000 ) ) ;
#682 = ORIENTED_EDGE ( 'NONE', *, *, #289, .T. ) ;
#683 =( NAMED_UNIT ( * ) SI_UNIT ( $, .STERADIAN. ) SOLID_ANGLE_UNIT ( ) );
#684 = CARTESIAN_POINT ( 'NONE',  ( 0.000000000000000000, 7.000000000000000000, 0.000000000000000000 ) ) ;
ENDSEC;
END-ISO-10303-21;
